<mxfile host="Electron" agent="Mozilla/5.0 (Macintosh; Intel Mac OS X 10_15_7) AppleWebKit/537.36 (KHTML, like Gecko) draw.io/24.7.17 Chrome/128.0.6613.36 Electron/32.0.1 Safari/537.36" version="24.7.17">
  <diagram name="페이지-1" id="eHg_9IH9pItPkIaMiBGM">
    <mxGraphModel dx="2139" dy="957" grid="1" gridSize="10" guides="1" tooltips="1" connect="1" arrows="1" fold="1" page="1" pageScale="1" pageWidth="827" pageHeight="1169" math="0" shadow="0">
      <root>
        <mxCell id="0" />
        <mxCell id="1" parent="0" />
        <mxCell id="xBhgXONv_JpVhmFGBIhz-8" value="" style="rounded=0;whiteSpace=wrap;html=1;strokeColor=none;" vertex="1" parent="1">
          <mxGeometry x="-180" y="300" width="990" height="600" as="geometry" />
        </mxCell>
        <mxCell id="xBhgXONv_JpVhmFGBIhz-1" value="" style="shape=image;verticalLabelPosition=bottom;labelBackgroundColor=default;verticalAlign=top;aspect=fixed;imageAspect=0;image=data:image/png,iVBORw0KGgoAAAANSUhEUgAABWsAAAQaCAYAAAA12So5AAAAOXRFWHRTb2Z0d2FyZQBNYXRwbG90bGliIHZlcnNpb24zLjYuMywgaHR0cHM6Ly9tYXRwbG90bGliLm9yZy/P9b71AAAACXBIWXMAAB7CAAAewgFu0HU+AADNzUlEQVR4nOzdfXyThb3//3dKgUgphII0SrUoYLlThICiw9uJ28ApKIru647Oza8KnB2G6I4eQXeYTr8TmZvbPPpDnZub3KhDBe/AieANaoCqIEF0BCimQEuEFlKgze+PrjnFFiht8rnSK6/n4+FjKb1y5RN5rW4fLq944vF4XAAAAAAAAAAAR2U5PQAAAAAAAAAAgGUtAAAAAAAAAKQFlrUAAAAAAAAAkAZY1gIAAAAAAABAGmBZCwAAAAAAAABpgGUtAAAAAAAAAKQBlrUAAAAAAAAAkAZY1gIAAAAAAABAGmBZCwAAAAAAAABpgGUtAAAAAAAAAKQBlrUAAAAAAAAAkAZY1gIAAAAAAABAGmBZCwAAAAAAAABpgGUtAAAAAAAAAKQBlrUAAAAAAAAAkAZY1gIAAAAAAABAGmBZCwAAAAAAAABpINvpAeCM733ve9q2bZu6d++uV155xelxAAAAAAAAgIzHsjZDbdu2TZFIxOkxkqq4uFiSNGjQIIcnQSagN1ihNViiN1ihNViiN1ihNViiN/fiNggAAAAAAAAAkAZY1gIAAAAAAABAGmBZCwAAAAAAAABpgGUtAAAAAAAAAKQBPmAMrlFYWOj0CMgg9AYrtAZL9AYrtAZL9AYrtAZL9OZeLGvhGj6fz+kRkEHoDVZoDZboDVZoDZboDVZoDZbozb24DQIAAAAAAAAApAGWtXCN4uJiFRcXOz0GMgS9wQqtwRK9wQqtwRK9wQqtwRK9uRfLWgAAAAAAAABIAyxrAQAAAAAAACANsKwFAAAAAAAAgDTAshYAAAAAAAAA0kC20wOg9aqpqVFFRYV27dqlffv2qbq62tF56l7/888/d3QOtE5t2rRRu3bt1KlTJ3Xs2FFZWfxZFgAAAAAAsOWJx+Nxp4eAvUAgoEgkIr/fr2AweNTP3717t0pKSpRO+dTN4vF4HJ4ErZ3H41GPHj2Um5t7yGNisZgkyev1Wo2FDEVrsERvsEJrsERvsEJrsERv7sWVtThqjS1qPR6P2rRp4+BUQMtUV1cnmo7H4yopKTnswpZ/IMIKrcESvcEKrcESvcEKrcESvbkXy1oclZqamoMWtR07dlReXp46dOjg+BWtNTU1ksS/vo5micfj2rNnj8rLy1VRUZFY2J5yyimNNsWfYsIKrcESvcEKrcESvcEKrcESvbkXWy0clbolllS7qC0oKFBOTo7ji1qp9gdV3Q8r4Gh5PB7l5OSooKBAHTt2lFS7wK2oqGj0+FAopFAoZDkiMhStwRK9wQqtwRK9wQqtwRK9uRfLWhyVXbt2JR7n5eWlxZIWSCaPx6O8vLzE1/WbBwAAAAAASCWWtTgq+/btk1S70OrQoYPD0wCpUf+2HnXNAwAAAAAApBrLWhyV6upqSVKbNm24qhauVf8D8+qaBwAAAAAASDWWtQAAAAAAAACQBljWAgAAAAAAAEAa8MTj8bjTQ8BeIBBQJBKR3+9XMBhs8vM+//xzHThwQNnZ2erTp08KJwScResAAAAAAMAaV9YCAAAAAAAAQBpgWQvXOHDggA4cOOD0GMgQ0WhU0WjU6TGQAWgNlugNVmgNlugNVmgNlujNvbKdHgBIln379kmSsrPJeuvWrbr00kslSXfffbe+//3vOzyR+4TDYUmSz+dzdhC4Hq3BEr3BCq3BEr3BCq3BEr25F1stAK1KeXm51qxZozVr1mjt2rVas2aNvv76a0nSJZdconvuucfZAQEAAAAAAJqJZS2AVuXiiy92egQAAAAAAICU4J61AFotv9+v4cOHOz0GAAAAAABAUnBlLVxh1y7p8889qqz0qFs3qaBA6tTJ6amQCjfeeKP69++v/v37q2vXrgfdnxcAAAAAAKA1Y1mLVisel956S/r976W//12qrj4m8b02baSxY6UJE6Tzz5c8HqemRLLddNNNTo8gSfJ6vU6PgAxBa7BEb7BCa7BEb7BCa7BEb+7Fshat0sqV0r/9m7RmTePfr66W5s+v/WvAAOnpp6UhQ2xnTLbVq1frpZde0qpVq1RWVqaqqirl5eXplFNO0dlnn63vfe97ys3NbfL5NmzYoLfeekurV6/Wl19+qZ07dyo7O1vdunXTaaedpnHjxunUU0897Dm2b9+uZ599Vu+//762bNmiWCymzp07q0uXLurVq5fOOussXXDBBerYsWOD5/7jH//Qyy+/rM8++0w7d+5U27Zt1aVLFx177LEKBAI655xzNHDgwKP++2SlqKjI6RGQIWgNlugNVmgNlugNVmgNlujNvVjWotV5443aq2YrK5t2/Jo10rnnSi+8II0cmdrZUiEWi2nGjBl67bXXGnxv27Zt2rZtm5YvX66dO3c2+arTjz76SDfffHODX9+/f782b96szZs3a+HChbr++us1adKkRs+xatUqTZ48WZXf+I0oLy9XeXm5vvjiC73++uvy+Xw655xzEt+vrq7Wf/3Xf2nx4sUNXnvPnj0qKSnR6tWr9e677+rPf/5zk94PAAAA0Kh586Tp06Xdu5t/jtxcacYMady45M0FAMAhsKxFq7Jy5dEtautUVtY+7+23W9cVtjU1Nbr11lu1YsUKSdKJJ56ocePGqX///vJ6vdqxY4eKi4sbLD6PpLq6Wsccc4xGjBihoUOHqmfPnsrJydHOnTv1xRdfaM6cOfrqq6/01FNP6cQTT2xwT9h9+/bpzjvvVGVlpXJycnTFFVdo6NChysvL0/79+1VSUqKPP/5Yb731VoPXnj9/fmLe008/XWPGjFFBQYG8Xq++/vprff7553rvvfdUUVHRvL9pRiKRiKTaDzkDUonWYIneYIXWYGb6dEVycqScHPmDweafZ9o0lrU4In62wRK9uRfLWrQa8XjtrQ+OdlFbp7JSuu466eOPW889bOfOnZtY1F5wwQW699571a5du4OOGTFihG655Rbt2LGjyectKirSokWLGr1twllnnaXx48dr8uTJWrFihR5//HGNHj1abdq0SRxTXFys7du3S5J++ctfHnTlrCSdeuqp+u53v6spU6YoFosd9L26Re3AgQP16KOPKjv74B9DZ555pq699lp9/fXXTX4/TigtLZXEPxiRerQGS/QGK7QGM7t3q/S88ySpZcvallyZi4zBzzZYojf3ynJ6AKCp3nrr0PeobapPP5WWLk3KOClXU1OTuA1Afn6+fvGLXzRY1NbJyspS9+7dm3xun8932Pvbtm3bVv/xH/8hSfrqq6+0fv36g75fVlaWeDx48OBDnic7O7vB/Wrrnnvaaac1WNTW17lz50O/AQAAAAAAABdiWYtW4w9/SK/zpNr69esTf1I2ZswYdejQIWWvtW/fPkUiEX355ZfasGGDNmzYoHg8ftAs9XXr1i3x+KWXXjqq16p77rJlyxSNRps/NAAAANLPvHlSv35SQUHz/+rXr/aTggEAyEDcBgGtwq5dtR8QlgzPP197vk6dknO+VFm3bl3i8eGuXm2uvXv36tlnn9Xrr7+uL7/8UtXV1Yc89ptL1dNPP109evRQSUmJZs6cqVdeeUUXXHCBBg8erAEDBqht27aHPNfo0aO1cuVKbd68WWPGjNEFF1ygM888U4MHD1Z+fn6y3h4AAACcMH26VO9/xzYb94gFAGQolrVoFbZskQ6zSzwq1dVSSUn6L2vrL0jrX8maDFu3btUtt9yikpKSJh1fVVV10NfZ2dmaNWuWfv7zn+uf//yn1q5dq7Vr10qS2rdvryFDhmj06NEaOXLkQfe6laTLLrtMW7Zs0dNPP62Kigq99NJLiatzCwoKdN555+nKK69UQUFBEt4pAAAATCXr3q7cIxYAkKFY1qJVqKhI7vky/X/7TZ8+XSUlJfJ4PPr+97+viy++WCeddJK6dOmitm3byuPxqKamRmeccYYkHXRLhDonn3yynn32WS1btkxvv/22Vq1apc2bN6uqqkrvvfee3nvvPT3zzDN6+OGHlZeXd9BzJ06cqMsvv1yvvPKKPvzwQ33yySeKxWLasmWLnnnmGc2ZM0dTp07VuDS+msLn8zk9AjIErcESvcEKrcGS74svnB4BGYKfbbBEb+7Fshatwjc+o6rFDvPZWmmj/g/eHTt2qGfPnkk578aNG7V69WpJ0o9+9CNNmDCh0eN27dp1xHO1adNG559/vs4///zEnO+++67mzZunzz77TJ999pnuu+8+Pfjggw2ee9xxx+mGG27QDTfcoAMHDmjNmjVavHixnn/+eVVVVemBBx7QwIED1bdv32a/11QqLCx0egRkCFqDJXqDFVqDpcLFi50eARmCn22wRG/uxQeMoVUoKJC+8W/TN1t2ttSjR3LOlUr1l5QrV65M2nm/qHdlwcUXX3zI4+pua3A0unXrpksvvVRPPvlkYv5ly5YpFosd9nnZ2dkaNGiQbr31Vv3yl7+UVHs175IlS456BgAAAAAAgNaKZS1ahU6dpLFjk3OusWPT/361knTKKackPnBrwYIF2rNnT1LOW/+DxPbu3XvI45577rlmv0Z2draGDBmSeL2Ko7iPxbBhwxKPv/nBZukkHA4rHA47PQYyAK3BEr3BCq3BUviiixS+6CKnx0AG4GcbLNGbe7GsRatxiH9b37HzpFpWVpZ++MMfSpJKS0t19913a//+/Y0eW1NTo+3btzfpvCeeeGLicd0He33T/PnztXTp0kOeo+7+tIeyf//+xNXAHTp0OOiWDosWLdKBAwcO+dz3338/8bhHGl8CHY1G03qZDPegNViiN1ihNViK9uqlaK9eTo+BDMDPNliiN/finrVoNc4/XxowQFqzpvnnGDhQOu+8pI2UcldddZWWLVumFStW6B//+IfGjx+vK6+8Uv369ZPX61VZWZk+/fRTvfbaa/rOd76jm2666YjnLCoqUq9evfTFF1/o+eef1+7duzVq1Ch169ZNpaWleuWVV7RkyRINGjRIxcXFjZ7jgw8+0OzZs3X66adrxIgR6tOnj7p06aJYLKZNmzbpueee07p16yRJl112mbKz//dHzfTp0/Xwww/rggsu0GmnnaaCggK1a9dO5eXlWrFihebPny+pdsn73e9+t8Frr169+qBFcf1/OG3evLnBAvr73//+Ef+eAAAAAAAApAOWtWg1PB7p6aelc8+VKiuP/vk5OdKf/lR7ntYiKytLM2fO1N13360lS5Zo06ZNmjlzZovO6fF49N///d+65ZZbtGvXLr3xxht64403Djqmd+/eeuCBBxpdltapqanRypUrD3s/3fPOO08TJ05s8OtlZWWaP39+YjH7TR07dtR9990nv9/f4Ht///vf9fLLLzf6vOLi4gYLZpa1AAAAAACgtWBZi1ZlyBDphRdq7zt7NAvbnJza5/3rNqqtitfr1QMPPKCPPvpIL774ooqLi7Vjxw7V1NQoLy9Pp5xyis455xx95zvfafI5i4qK9Ne//lVPPvmk3n33XW3fvl05OTkqKCjQyJEjdeWVV6p9+/aHfP4Pf/hD9enTRx988IFCoZC2b9+unTt3SpK6du2qAQMGaPTo0RoxYkSD586ZM0fLly/X6tWrVVJSorKyMlVUVKhDhw7q2bOnhg8frnHjxqlr165H/zcLAAAAAACgFWNZi1Zn5Ejp7belf/u3pt0SYeDA2itqW+Oitr6hQ4dq6NChTTr2+OOP10cffXTYY/x+v+64447DHnOoc3To0EEXXnihLrzwwibNU1+vXr3Uq1cvXXfddUf9XEm65557dM899zTruQAAAAAAAOmMZS1apSFDpE8+kZYulX7/+9qrZqur//f72dm1V99OmFB7j9rWdOsDtA75+flOj4AMQWuwRG+wQmuwlH+EixiAZOFnGyzRm3uxrEWr5fHUfujY+edLu3ZJJSXS7t1Sbq7Uo4fUqZPTE8LNGrufLpAKtAZL9AYrtAYzubnyB4NJOQ9wJPxsgyV6cy+WtXCFTp1YzgIAAAD4hhkzpGnTaq/qaK7c3NrzAABggGUtXCMWi0mq/UAuINVCoZCk2g9rA1KJ1mCJ3mCF1mBm3DiFTj1VEr0h9fjZBkv05l4sa+EaNTU1To+ADFL3hwNAqtEaLNEbrNAaLNEbrNAaLNGbe2U5PQAAAAAAwCWSdW9X7hELAMhQXFkLAAAAAEgO7hELAECLsKwFAAAAACTHuHG1fwEAgGbhNggAAAAAAAAAkAa4shau0a5dO6dHQAYpLCx0egRkCFqDJXqDFVqDJXqDFVqDJXpzL5a1cI3sbHKGHZ/P5/QIyBC0Bkv0Biu0Bkv0Biu0Bkv05l7cBgEAAAAAAAAA0gDLWrjGnj17tGfPHqfHQIYoLi5WcXGx02MgA9AaLNEbrNAaLNEbrNAaLNGbe7GsBQAAAAAAAIA0wE0+j9I999yjxx9/PPF1QUGBVqxYkZRzz5kzR1OmTDmq51xzzTV68MEHk/L6AAAAAAAAAJzDlbVHYdWqVZo9e7bTYwAAAAAAAABwIa6sbaL9+/frtttuU01Njcnr9e7dWyNGjDjicUOHDjWYBgAAAAAAAECqsaxtot///vf67LPPJEljx47VCy+8kNLXGzx4sO69996UvgYAAAAAAACA9MGytgk2bNig3/72t5Kkyy+/XCNGjEj5shZHz+v1Oj0CMkhRUZHTIyBD0Bos0Rus0Bos0Rus0Bos0Zt7cc/aI4jH45o6daqqqqrk8/l09913Oz0SDiErK0tZWSQtSVu3btXQoUM1dOhQvfTSS06P40per5c/IIAJWoMleoMVWoMleoMVWoMlenMvrqw9gj/96U/68MMPJUl33XWXunXr5vBEOJS6+wmzsHW3tWvX6p133tHq1av1z3/+Uzt37lR2draOPfZYDRo0SJdddplOP/30lM8Ri8UkcUU3Uo/WYIneYIXWYIneYIXWYIne3Itl7WGUlJToV7/6lSTpzDPP1NVXX+3wRDicuh9UHTp0cHgSpMqNN96oVatWNfj1/fv3a9OmTdq0aZNeeukljR49WnfddZfatm2bsllCoZAkadCgQSl7DUCiNdiiN1ihNViiN1ihNViiN/diWXsYd955pyoqKtSuXTs98MAD8ng8Zq+9a9cuvfTSS1q/fr127dql3Nxc5efnKxAIqF+/fqazAOli+/btkqRjjz1WF110kU4//XT5/X7V1NTo448/1jPPPKNt27Zp4cKFOnDgAB/SBwAAAAAAWhWWtYewYMECLV68WJI0YcIE9enTx/T1X3vtNb322muNfu+kk07SxIkTdfXVV7d4aVtTU6OtW7ce9pjjjz++Ra8BJEvPnj01ceJEXXjhhWrTps1B3zv11FM1evRo3XDDDdq0aZNee+01XXHFFRoyZIhD0wIAAAAAABwdlrWNKC8v17Rp0yRJJ598sn760586PNHB/vnPf2rq1Kl69dVX9cc//rFF/9r/tm3bNGzYsMMes2jRosTj6upqtWnTRtnZtekcOHBA+/bta/CcrKysxH1T9u/fr/379zc4pk2bNmrfvr0kqaqqStXV1Q2Oadu2beJfZd/3zDPKnjFD2r37oGM8Ho88krzxuCSpppH3UHdMPDdX++66S9VjxzY4pu7vo+V7isViiXvt1teuXbvE3+M9e/Y08o5q70uTlZWlmpqaxC0g6uzdu/egr93wniTpvvvuO+zvU7t27TRx4kT9/Oc/lyS98cYb6tu3b7PeU/xfPUm1/3rJN+cpKytTx44dE18XFxc3+p6Kiork9XoVi8US/5rKN9X9ayvRaFThcLjB971eb+KTPiORiEpLSxsc4/P5VFhYKEkKh8OKRqMNjsnPz5ff7z/ke5KkwsJC+Xw+3lMavaeysrIGs7f29+TG3ye3vKc6bnpPbvx9csN7qv+zzS3vqT7eU3q9p927d2vfvn0NZmrN78mNv09ueE9lZWVq165d4ms3vCfJfb9PbnlP3/z/CW54T9/UWt5Tsm9FwbK2Effcc08i+vvvvz+x1LHQo0cPXXLJJRoxYoT69u2rrl27Jq5+Xb58uZ544glt2LBBkrR48WJNnDhRs2fPzogP1cqeMUNZh/gvjCQ15e+AR1LbGTMaXdamu08++USLFi3Sxx9/rLKyMu3bt095eXnq06ePhg0bppEjRyo3N7fJ5/vyyy+1fPlyffrpp/ryyy8TH9SVl5engQMHasyYMRowYMBhz7Fjxw7Nnz9fH330kUpKShSLxdSpUyf5fD6dfPLJOuOMM3TuuecqJyenwXPffvttvfrqqwqFQopGo8rOzlaXLl3UvXt3DRkyRGeccYb69+9/1H+f6l9JW1JSctTPBwAAAAAAcIonXv/yMWjp0qX6wQ9+IEm68sor9Zvf/KbBMXPmzNGUKVMkSQUFBVqxYkVSXvvrr79Wbm7uYRev+/bt03/+539qzpw5iV/77W9/qyuuuOKoXisQCCgSiah79+5auHDhYY+tfxuEzz//XAcOHFB2drb5rSFUUCAlY/nWo4e0ZUvLz2MkFotpxowZh7wtRp0bb7xRN910kyRp69atuvTSSyVJd999t77//e8fdOxHH32km2+++Yivff3112vSpEmNfm/VqlWaPHmyKisrD3uOWbNm6Zxzzkl8XV1drf/6r/9K3GbkUPr166c///nPR5zxm77++mt9+9vfliSdc845mjVr1lGfQzpy63V/GsfN3JFqtAZL9AYrtAZL9AYrtAZL9OZeXFlbz549exL/+nSXLl00ffp009fv3LnzEY9p166dHnzwQW3cuDGxJP7DH/5w1MvaOllZWdyTNo3V1NTo1ltvTfxen3jiiRo3bpz69+8vr9erHTt2qLi4+IiLz2+qrq7WMcccoxEjRmjo0KHq2bOncnJytHPnTn3xxReaM2eOvvrqKz311FM68cQTE4vfOvv27dOdd96pyspK5eTk6IorrtDQoUOVl5en/fv3q6SkRB9//LHeeuutBq89f/78xLynn366xowZo4KCAnm9Xn399df6/PPP9d5776mioqJZf89WrlyZeHzSSSc16xxNwT8QYYXWYIneYIXWYIneYIXWYIne3ItlbT3333+/Nm/eLEmaPn268vLyHJ6ocVlZWfrZz36mq6++WpK0bt06bd26laWrC82dOzexqL3gggt07733HnQPJEkaMWKEbrnlFu3YsaPJ5y0qKtKiRYsavW3CWWedpfHjx2vy5MlasWKFHn/8cY0ePfqgD/QqLi7W9u3bJUm//OUvD7pyVqr9sK/vfve7mjJlSoP7xdQtagcOHKhHH300cR/bOmeeeaauvfZaff31101+P3Vqamr01FNPJb4eOXLkUZ8DAAAAAADAKe6/0WkTffLJJ3ryySclSWeffbauuuoqhyc6vOHDhyc+0ElS4j62cI+amprEbQDy8/P1i1/8osGitk5WVpa6d+/e5HP7fL7D3t+2bdu2+o//+A9J0ldffaX169cf9P26ezpL0uDBgw95nuzs7IM+hKv+c0877bQGi9r6mnKl+Tf99a9/1Zo1ayTVLrf79et31Odoqmg02ujNzYFkozVYojdYoTVYojdYoTVYojf34sraf1m7dm3iE+y3bt2qSy655JDHlpeXJx5v27btoGMnT56siy66KHWD/kvbtm2Vl5eX+LS8+jPBHdavX5/4/R0zZow6dOiQstfat2+fysvLtWfPnsR/D+rfznr9+vUHLT67deuWePzSSy/pmmuuafJrdevWTZs2bdKyZct0ww03JD6RsaWCwaB+97vfSZLy8vJ0xx13JOW8h1L3yY/Jmh84FFqDJXqDFVqDJXqDFVqDJXpzL5a1jdi4caM2btzYpGP37dunVatWJb6uf8Vhqu3ZsyfxOJWLPDhj3bp1iceHu3q1ufbu3atnn31Wr7/+ur788ktVV1cf8thv/mnd6aefrh49eqikpEQzZ87UK6+8ogsuuECDBw/WgAEDDrrq+5tGjx6tlStXavPmzRozZowuuOACnXnmmRo8eLDy8/Ob9V6++OIL3Xbbbaqurlb79u11//33p+1tTAAAAAAAAA6FZW0rFQ6HtXv37sTXzV1yIX3VX5DWv5I1GbZu3apbbrlFJSUlTTq+qqrqoK+zs7M1a9Ys/fznP9c///lPrV27VmvXrpUktW/fXkOGDNHo0aM1cuTIg+51K0mXXXaZtmzZoqeffloVFRV66aWX9NJLL0mSCgoKdN555+nKK69UQUFBk2YrKSnRpEmTtGvXLrVp00b33nuvhgwZ0qTnAgAAAAAApBOWtf8yfvx4jR8/vknHzpkzR1OmTJFUu1yq+wAoS88++2zicadOnTRgwADzGdB6TZ8+XSUlJfJ4PPr+97+viy++WCeddJK6dOmitm3byuPxqKamRmeccYakg2+JUOfkk0/Ws88+q2XLluntt9/WqlWrtHnzZlVVVem9997Te++9p2eeeUYPP/xwg6tcJ06cqMsvv1yvvPKKPvzwQ33yySeKxWLasmWLnnnmGc2ZM0dTp07VuHHjDvs+tm/frgkTJmj79u3yeDyaNm2azj///KT9fQIAAAAAALDEsjZNVFZWKicnp0nHfvjhh3rssccSX1966aWH/aAmtE717zuzY8cO9ezZMynn3bhxo1avXi1J+tGPfqQJEyY0etyuXbuOeK42bdro/PPPTyxId+zYoXfffVfz5s3TZ599ps8++0z33XefHnzwwQbPPe6443TDDTfohhtu0IEDB7RmzRotXrxYzz//vKqqqvTAAw9o4MCB6tu3b6OvHY1GNXHixMTVwbfddtth7zUNAAAAAACQ7rKcHsDtNm/erB49eiT+mjNnTqPHvfzyyxo9erTmzZt3yCVZLBbT7NmzdfXVVysWi0mSOnfunLjKF+5Sf0m5cuXKpJ33iy++SDy++OKLD3lc3W0Njka3bt106aWX6sknn0zMv2zZskSvh5Kdna1Bgwbp1ltv1S9/+UtJtVfzLlmypNHjKyoqNGnSJH355ZeSpEmTJumqq6466nlbwuv1yuv1mr4mMhOtwRK9wQqtwRK9wQqtwRK9uReXY6aR1atXa/LkycrOzlbv3r3Vq1cv+Xw+VVdXKxKJKBgMHnSfWq/XqyeeeIL71brUKaecovz8fJWWlmrBggW69tprk/JBcvU/SGzv3r2HPO65555r9mtkZ2dryJAhWrdunaqrq1VRUdHkf4gMGzYs8fibH2wm1f6hxX/8x38kPoDthhtu0PXXX9/sWZurqKjI/DWRmWgNlugNVmgNlugNVmgNlujNvbiyNg0dOHBA69at08KFC/XMM8/o2Wef1VtvvXXQonbw4MF69dVXNXz4cAcnRSplZWXphz/8oSSptLRUd999t/bv39/osTU1Ndq+fXuTznviiScmHtd9sNc3zZ8/X0uXLj3kOeruT3so+/fvT1wN3KFDh4Nu6bBo0SIdOHDgkM99//33E4979OjR4LxTp05VcXGxJOmaa6455G0cAAAAAAAAWhuurE0TY8aM0cknn6xgMKhgMKhwOKzy8nLt3LlT8Xhcubm5OuGEEzRkyBBdcskliQ9+grtdddVVWrZsmVasWKF//OMfGj9+vK688kr169dPXq9XZWVl+vTTT/Xaa6/pO9/5jm666aYjnrOoqEi9evXSF198oeeff167d+/WqFGj1K1bN5WWluqVV17RkiVLNGjQoMRS9Js++OADzZ49W6effrpGjBihPn36qEuXLorFYtq0aZOee+65xJWvl1122UH3VJ4+fboefvhhXXDBBTrttNNUUFCgdu3aqby8XCtWrND8+fMl1S55v/vd7x70unfeeWdimTts2DBddtll2rBhwyHfa9u2bVVYWHjEvyfNEYlEJEl+vz8l5wfq0Bos0Rus0Bos0Rus0Bos0Zt7saxthvHjx2v8+PFNOvaEE05IfADS4bRv317Dhg076F8BB7KysjRz5kzdfffdWrJkiTZt2qSZM2e26Jwej0f//d//rVtuuUW7du3SG2+8oTfeeOOgY3r37q0HHnigwbK0vpqaGq1cufKw99M977zzNHHixAa/XlZWpvnz5ycWs9/UsWNH3XfffQ3+ofOPf/wj8fjDDz/U1VdffcjXlmo/xOxQVw+3VGlpqST+wYjUozVYojdYoTVYojdYoTVYojf3YlkLpDmv16sHHnhAH330kV588UUVFxdrx44dqqmpUV5enk455RSdc845+s53vtPkcxYVFemvf/2rnnzySb377rvavn27cnJyVFBQoJEjR+rKK69U+/btD/n8H/7wh+rTp48++OADhUIhbd++XTt37pQkde3aVQMGDNDo0aM1YsSIBs+dM2eOli9frtWrV6ukpERlZWWqqKhQhw4d1LNnTw0fPlzjxo1T165dj/5vFgAAAAAAQCvGshatR25uep3H2NChQzV06NAmHXv88cfro48+Ouwxfr9fd9xxx2GPOdQ5OnTooAsvvFAXXnhhk+apr1evXurVq5euu+66o37ukd4TAAAAAABAa8ayFq3HjBnStGlSvQ9aq68mHpckZXk8hz5Hbm7teQAAAAAAAIA0w7IWrce4cbV/HUJszx5JtVd9AgAAAAAAAK0Ny1q4Rps2bZweARnE5/M5PQIyBK3BEr3BCq3BEr3BCq3BEr25F8tauMbhPhALSLbCwkKnR0CGoDVYojdYoTVYojdYoTVYojf3ynJ6AAAAAAAAAAAAy1q4SFVVlaqqqpweAxkiHA4rHA47PQYyAK3BEr3BCq3BEr3BCq3BEr25F8tauEZ1dbWqq6udHgMZIhqNKhqNOj0GMgCtwRK9wQqtwRK9wQqtwRK9uRfLWgAAAAAAAABIAyxrAQAAAAAAACANsKwFAAAAAAAAgDTAshYAGhGPx50eAQAAAAAAZJhspwdA69KmTRsdOHBABw4cUHV1tdq0aeP0SAlt27Z1egS4RP0PqztU4/n5+ZYjIYPRGizRG6zQGizRG6zQGizRm3uxrMVR6dChg6qqqiTVfvJg165dHZ7of7GsRbLU/0TNDh06NHqM3+83mgaZjtZgid5ghdZgid5ghdZgid7ci2UtjorP59POnTslSdu2bVN1dbU6deqk9u3by+PxODwd0HzxeFxVVVXatWuXysrKEr/epUsXB6cCAAAAAACZhGUtjorX61Xnzp319ddfS5LKyspUVlYmj8fj+C0RampqJElZWdyKGUevurq6wX1qO3furPbt2zd6fCgUkiQVFRWlfDZkNlqDJXqDFVqDJXqDFVqDJXpzL5a1OGrHHXec2rVrp+3btyd+LR6P68CBAw5OJe3bt0+S1K5dO0fngDsce+yxh73NRywWM5wGmYzWYIneYIXWYIneYIXWYIne3ItlLY6ax+NRt27d1KlTJ1VUVKiyslL79u1LXNnqlL1790qSsrPJGkcvKytL7dq1U05Ojjp27MjSHwAAAAAAmGOrhWZr166d8vLylJeX5/QokqTi4mJJUp8+fRyeBAAAAAAAADh63NwTAAAAAAAAANIAy1oAAAAAAAAASAPcBgGuUVhY6PQIyCD0Biu0Bkv0Biu0Bkv0Biu0Bkv05l4sa+EaPp/P6RGQQegNVmgNlugNVmgNlugNVmgNlujNvbgNAgAAAAAAAACkAZa1cI3i4mIVFxc7PQYyBL3BCq3BEr3BCq3BEr3BCq3BEr25F8taAAAAAAAAAEgDLGsBAAAAAAAAIA2wrAUAAAAAAACANMCyFgAAAAAAAADSAMtaAAAAAAAAAEgDnng8Hnd6CNgLBAKKRCLy+/0KBoNOj5MUsVhMkuT1eh2eBJmA3mCF1mCJ3mCF1mCJ3mCF1mCJ3twr2+kBgGThBxQs0Rus0Bos0Rus0Bos0Rus0Bos0Zt7cRsEuEYsFkv8yRKQavQGK7QGS/QGK7QGS/QGK7QGS/TmXixr4RqhUEihUMjpMZAh6A1WaA2W6A1WaA2W6A1WaA2W6M29WNYCAAAAAAAAQBpgWQsAAAAAAAAAaYBlLQAAAAAAAACkAZa1AAAAAAAAAJAGWNYCAAAAAAAAQBrwxOPxuNNDwF4gEFAkEpHf71cwGHR6HAAAAAAAACDjcWUtAAAAAAAAAKQBlrVwjWg0qmg06vQYyBD0Biu0Bkv0Biu0Bkv0Biu0Bkv05l7ZTg8AJEs4HJYk+Xw+ZwdBRqA3WKE1WKI3WKE1WKI3WKE1WKI39+LKWgAAAAAAAABIAyxrAQAAAAAAACANsKwFAAAAAAAAgDTAshYAAAAAAAAA0gAfMAbX8Hq9To+ADEJvsEJrsERvsEJrsERvsEJrsERv7uWJx+Nxp4eAvUAgoEgkIr/fr2Aw6PQ4AAAAAAAAQMbjNggAAAAAAAAAkAZY1sI1IpGIIpGI02MgQ9AbrNAaLNEbrNAaLNEbrNAaLNGbe7GshWuUlpaqtLTU6TGQIegNVmgNlugNVmgNlugNVmgNlujNvVjWAgAAAAAAAEAaYFkLAAAAAAAAAGmAZS0AAAAAAAAApAGWtQAAAAAAAACQBrKdHgBIFp/P5/QIyCD0Biu0Bkv0Biu0Bkv0Biu0Bkv05l6eeDwed3oI2AsEAopEIvL7/QoGg06PAwAAAAAAAGQ8boMAAAAAAAAAAGmAZS1cIxwOKxwOOz0GMgS9wQqtwRK9wQqtwRK9wQqtwRK9uRfLWrhGNBpVNBp1egxkCHqDFVqDJXqDFVqDJXqDFVqDJXpzLz5gDAAAAAAAJM+8edL06dLu3c0/R26uNGOGNG5c8uYCgFaAZS0AAAAAAEie6dOldetafp5p01jWAsg43AYBAAAAAAAkT0uuqE3FeQCgFWFZCwAAAAAAAABpgNsgwDXy8/OdHgEZhN5ghdZgid5ghdZgid5ghdZgid7ci2UtXMPv9zs9AjIIvcEKrcESvcEKrcESvcEKrcESvbkXt0EAAAAAAAAAgDTAshauEQqFFAqFnB4DGYLeYIXWYIneYIXWYIneYIXWYIne3IvbIMA1YrGY0yMgg9AbrNAaLNEbrNAaLNEbrNAaLNGbe3FlLQAAAAAAAACkAZa1AAAAAAAAAJAGWNYCAAAAAAAAQBpgWQsAAAAAAAAAaYAPGINrFBYWOj0CMgi9wQqtwRK9wQqtwRK9wQqtwRK9uRfLWriGz+dzegRkEHqDFVqDJXqDFVqDJXqDFVqDJXpzL26DAAAAAAAAAABpgGUtXKO4uFjFxcVOj4EMQW+wQmuwRG+wQmuwRG+wQmuwRG/uxbIWAAAAAAAkT25uep0HAFoR7lkLAAAAAACSZ8YMado0affu5p8jN7f2PACQYVjWAgAAAACA5Bk3rvYvAMBR4zYIAAAAAAAAAJAGWNYCAAAAAAAAQBrwxOPxuNNDwF4gEFAkEpHf71cwGHR6nKSIxWKSJK/X6/AkyAT0Biu0Bkv0Biu0Bkv0Biu0Bkv05l7csxauwQ8oWKI3WKE1WKI3WKE1WKI3WKE1WKI39+I2CHCNWCyW+JMlINXoDVZoDZboDVZoDZboDVZoDZbozb1Y1sI1QqGQQqGQ02MgQ9AbrNAaLNEbrNAaLNEbrNAaLNGbe7GsBQAAAAAAAIA0wLIWAAAAAAAAANIAy1oAAAAAAAAASAMsawEAAAAAAAAgDWQ7PQAAAADQas2bJ02fLu3e3fxz5OZKM2ZI48Ylby4AAAC0Sp54PB53egjYCwQCikQi8vv9CgaDTo8DAMDBWIChtejXT1q3ruXn6dtX+uyzlp8HAAAArRpX1gIAgPQzfXpyFmDTprGsRWq15A8UUnEeAAAAtGrcsxauEY1GFY1GnR4DGYLeYCVjW2MB5oiM7Q3maA2W6A1WaA2W6M29uLIWrhEOhyVJPp/P2UGQEegNVmgNlugNVmgNlugNVmgNlujNvbiyFgAAAAAAAADSAMtaAAAAAAAAAEgDLGsBAAAAAAAAIA2wrAUAAAAAAACANMAHjME1vF6v0yMgg9AbrNAaLNEbrNAaLNEbrNAaLNGbe3ni8Xjc6SFgLxAIKBKJyO/3KxgMOj0OAAAHKyiQSkpafp4ePaQtW1p+HuBQaBUAAABJxG0QAAAAAAAAACANsKyFa0QiEUUiEafHQIagN1ihNViiN1ihNViiN1ihNViiN/diWQvXKC0tVWlpqdNjIEPQG6zQGizRG6zQGizRG6zQGizRm3uxrAUAAAAAAACANMCyFgAAAAAAAADSAMtaAAAAAAAAAEgDLGsBAACA5srNTa/zAAAAoFXLdnoAIFl8Pp/TIyCD0BusZGxrLMAckbG9tcSMGdK0adLu3c0/R25u7XkyCK3BEr3BCq3BEr25lycej8edHgL2AoGAIpGI/H6/gsGg0+MAAHCw+fOTtwAbNy55cwEAAABACnFl7VG655579Pjjjye+Ligo0IoVK5L+Ovv27dOLL76oBQsWKBQKaceOHercubNOOOEEjRo1SldddZXy8vKS/roAAKSFceNYsgIAAADIOCxrj8KqVas0e/bslL/Ohg0bNGHCBK1Zs+agX9+2bZu2bdumYDCoP/7xj3rooYf07W9/O+XztBbhcFiSVFhY6PAkyAT0Biu0Bkv0Biu0Bkv0Biu0Bkv05l58wFgT7d+/X7fddptqampS+jpbt27V+PHjE4taj8ejs846S1dffbVGjhwpr9crSdqxY4d+/OMfa/ny5SmdpzWJRqOKRqNOj4EMQW+wQmuwRG+wQmuwRG+wQmuwRG/uxZW1TfT73/9en332mSRp7NixeuGFF1LyOpMmTVIkEpFUe4uFJ554QgMGDEh8v7y8XLfccouWL1+u/fv366abbtK7776rzp07p2QeAAAAAAAAADa4srYJNmzYoN/+9reSpMsvv1znnHNOSl5nyZIlifvftmvXTk899dRBi1pJysvL05NPPpm4zD0ajeoPf/hDSuYBAAAAAAAAYIdl7RHE43FNnTpVVVVV8vl8uvvuu1P2Wk899VTi8ZVXXql+/fo1elyHDh00derUxNd/+ctfdODAgZTNBQAAAAAAACD1WNYewZ/+9Cd9+OGHkqS77rpL3bp1S8nrVFZW6p133kl8fdVVVx32+FGjRiknJ0dS7dW177//fkrmAgAAAAAAAGCDe9YeRklJiX71q19Jks4880xdffXVKXutjz76SFVVVZJqr5w9/fTTD3u81+tVIBDQ22+/LUl65513NGLEiJTN1xrk5+c7PQIyCL3BCq3BEr3BCq3BEr3BCq3BEr25F8vaw7jzzjtVUVGhdu3a6YEHHpDH40nZa33++eeJx3379lV29pF/a0499dTEsnbDhg0pm6218Pv9To+ADEJvsEJrsERvsEJrsERvsEJrsERv7sWy9hAWLFigxYsXS5ImTJigPn36pPT1vvjii8TjgoKCJj3n+OOPTzxu7rK2pqZGW7dubfLrAAAAAAAAAEgNlrWNKC8v17Rp0yRJJ598sn7605+m/DV37tyZeHzsscc26Tndu3dPPI5Go8163W3btmnYsGGHPWbRokUNfm3QoEGJ1w2Hww2+7/V6VVRUJEmKRCIqLS1tcIzP51NhYaEkKRwON/oe8vPzE39aFAqFFIvFGhxTWFgon8+nUCikSCQin8/X4JiioiJ5vV7FYjGFQqFG32c6vidJKi4ubnRe3pOz7ykajcrn8yXmccN7ktz3++SG9xSJRBLPdct7cuPvk1ve09dff5342i3vyY2/T254T3X/6fP5XPOe6uM9pdd7WrFihWKxWIP/n9Ca35Mbf5/c8J6i0ai8Xq/OPPNM17wnyX2/T255T/X/WeqW9/RNreU91f16srCsbcQ999yjsrIySdL999+v9u3bp/w1KysrE4+9Xm+TnlP/uPrPz1SxWEzV1dVOj4EMUV1dnbjPNJBK/FyDpbr/cdvU/y0CNBc/22Bp//79NAcT1dXV2r9/v9NjIEPwc829PPF4PO70EOlk6dKl+sEPfiBJuvLKK/Wb3/ymwTFz5szRlClTJNXesmDFihUtft2rrrpK77zzjiRp8uTJuu222474nOXLl2v8+PGSpDZt2mjTpk1Nfr1AIKBIJKLu3btr4cKFhz22tdwGoe5PR5L9JxpAY+gNVmgNlugNVmgNlugNVmgNlujNvbiytp49e/bo5z//uSSpS5cumj59utlr1796t6l/Erdv377E4+ZeAZOVldVqlrEAAAAAAACAm2U5PUA6uf/++7V582ZJ0vTp05WXl2f22jk5OYnHjd1fozH1j6v/fAAAAAAAAACtD8vaf/nkk0/05JNPSpLOPvtsXXXVVaav36VLl8Tj7du3N+k527ZtSzxu7EO1AAAAAAAAALQe3AbhX9auXauamhpJ0tatW3XJJZcc8tjy8vLE423bth107OTJk3XRRRcd9ev36tUr8XjLli1Nes7WrVsTj3v37n3Ur+k2dZ8QCFigN1ihNViiN1ihNViiN1ihNViiN/diWduIjRs3auPGjU06dt++fVq1alXi67Kysma9Zp8+fRKP161bpwMHDig7+/C/PZ988kniMctari6GLXqDFVqDJXqDFVqDJXqDFVqDJXpzL26DkCaGDh2a+JCxPXv2JD7V71Cqqqq0cuXKxNff+ta3UjofAAAAAAAAgNTiytp/GT9+vMaPH9+kY+fMmaMpU6ZIkgoKCrRixYoWv35OTo6+9a1v6c0335QkzZ07V4FA4JDHv/LKK6qoqJBU+6cpw4cPb/EMrV3dgnvQoEEOT4JMQG+wQmuwRG+wQmuwRG+wQmuwRG/uxZW1aeS6665LPJ43b55CoVCjx+3du1e//vWvE19fe+21R7xlAgAAAAAAAID0xrI2xTZv3qwePXok/pozZ84hj73ooot05plnSqq9zcF1112ntWvXHnRMeXm5brjhhsQ9dX0+nyZMmJCy+QEAAAAAAADY4HLMNPPII4/okksuUWlpqTZv3qyLL75Yw4cPV8+ePVVWVqZly5Zp7969kqTs7Gw9+uij6ty5s8NTAwAAAAAAAGgprqxNM8cff7zmzp2rAQMGSJLi8bjee+89/e1vf9Prr7+eWNR27dpVs2fP1jnnnOPkuAAAAAAAAACShCtr01Dv3r318ssva8GCBVqwYIFCoZB27NihTp066cQTT9SoUaM0fvx45eXlOT0qAAAAAAAAgCTxxOPxuNNDwF4gEFAkEpHf71cwGHR6nKSIxWKSJK/X6/AkyAT0Biu0Bkv0Biu0Bkv0Biu0Bkv05l5cWQvX4AcULNEbrNAaLNEbrNAaLNEbrNAaLNGbe3HPWrhGLBZL/MkSkGr0Biu0Bkv0Biu0Bkv0Biu0Bkv05l4sa+EaoVBIoVDI6TGQIegNVmgNlugNVmgNlugNVmgNlujNvVjWAgAAAAAAAEAaYFkLAAAAAAAAAGmAZS0AAAAAAAAApAGWtQAAAAAAAACQBljWAgAAAAAAAEAa8MTj8bjTQ8BeIBBQJBKR3+9XMBh0ehwAAAAAAAAg43FlLQAAAAAAAACkAZa1cI1oNKpoNOr0GMgQ9AYrtAZL9AYrtAZL9AYrtAZL9OZe2U4PACRLOByWJPl8PmcHQUagN1ihNViiN1ihNViiN1ihNViiN/fiyloAAAAAAAAASAMsawEAAAAAAAAgDbCsBQAAAAAAAIA0wLIWAAAAAAAAANIAHzAG1/B6vU6PgAxCb7BCa7BEb7BCa7BEb7BCa7BEb+7licfjcaeHgL1AIKBIJCK/369gMOj0OAAAAAAAAEDG48paAAAAAAAAtNy8edL06dLu3c0/R26uNGOGNG5c8uYCWhGWtXCNSCQiSfL7/Q5PgkxAb7BCa7BEb7BCa7BEb7BCa6pd1K5b1/LzTJvGsvYI6M29+IAxuEZpaalKS0udHgMZgt5ghdZgid5ghdZgid5ghdbUsitqU3EeF6M392JZCwAAAAAAAABpgGUtAAAAAAAAAKQBlrUAAAAAAAAAkAb4gDEAAAAAAAAAR2/evNoPlmvJfYZzc6UZM/hQuX9hWQvX8Pl8To+ADEJvsEJrsERvsEJrsERvsEJrsJQ2vU2fLq1b1/LzTJvGsvZfWNbCNQoLC50eARmE3mCF1mCJ3mCF1mCJ3mCF1mApbXpryRW1qTiPC3DPWgAAAAAAAABIAyxr4RrhcFjhcNjpMZAh6A1WaA2W6A1WaA2W6A1WaA2W6M29WNbCNaLRqKLRqNNjIEPQG6zQGizRG6zQGizRG6zQWhJ99ZVUUHD4v/r1k+bPd3pSx9Cbe3HPWgAAAAAAAKSPmhqppOTIx/GhVHAhrqwFAAAAAABA68OHUsGFWNYCAAAAAAAAQBpgWQsAAAAAAAAAaYB71sI18vPznR4BGYTeYIXWYIneYIXWYIneYIXWYIne3ItlLVzD7/c7PQIyCL3BCq3BEr3BCq3BEr3BCq1Jys11eoKMQW/uxbIWAAAAAAAALTdjhjRt2pE/+Ourr6SaGpuZgFaGZS1cIxQKSZKKioocngSZgN5ghdZgid5ghdZgid5ghdYkjRtX+9eRFBRIJSWpn8fF6M29WNbCNWKxmNMjIIPQG6zQGizRG6zQGizRG6zQGizRm3tlOT0AAAAAAAAAAIBlLQAAAAAAAACkBZa1AAAAAAAAAI5ebm56nccFuGctAAAAAAAAgKM3Y4Y0bZq0e3fzz5GbW3seSGJZCxcpLCx0egRkEHqDFVqDJXqDFVqDJXqDFVqDpbTpbdy42r+QNCxr4Ro+n8/pEZBB6A1WaA2W6A1WaA2W6A1WaA2W6M29uGctAAAAAAAAAKQBlrVwjeLiYhUXFzs9BjIEvcEKrcESvcEKrcESvcEKrR0FPpSqxejNvbgNAgAAAAAAAOzwoVTAIbGsBQAAAAAAgB0+lAo4JG6DAAAAAAAAAABpgGUtAAAAAAAAAKQBlrUAAAAAAAAAkAY88Xg87vQQsBcIBBSJROT3+xUMBp0eJylisZgkyev1OjwJMgG9wQqtwRK9wQqtwRK9wQqtwRK9uRcfMAbX4AcULNEbrNAaLNEbrNAaLNEbrNAaLNGbe3EbBLhGLBZL/MkSkGr0Biu0Bkv0Biu0Bkv0Biu0Bkv05l4sa+EaoVBIoVDI6TGQIegNVmgNlugNVmgNlugNVmgNlujNvVjWAgAAAAAAAEAaYFkLAAAAAAAAAGmAZS0AAAAAAAAApAGWtQAAAAAAAACQBljWAgAAAAAAAEAa8MTj8bjTQ8BeIBBQJBKR3+9XMBh0ehwAAAAAAAAg43FlLQAAAAAAAACkAZa1cI1oNKpoNOr0GMgQ9AYrtAZL9AYrtAZL9AYrtAZL9OZe2U4PACRLOByWJPl8PmcHQUagN1ihNViiN1ihNViiN1ihNViiN/fiyloAAAAAAAAASAMsawEAAAAAAAAgDbCsBQAAAAAAAIA0wLIWAAAAAAAAANIAHzAG1/B6vU6PgAxCb7BCa7BEb7BCa7BEb7BCa7BEb+7licfjcaeHgL1AIKBIJCK/369gMOj0OAAAAAAAAEDG4zYIAAAAAAAAAJAGWNbCNSKRiCKRiNNjIEPQG6zQGizRG6zQGizRG6zQGizRm3uxrIVrlJaWqrS01OkxkCHoDVZoDZboDVZoDZboDVZoDZbozb1Y1gIAAAAAAABAGmBZCwAAAAAAAABpgGUtAAAAAAAAAKQBlrUAAAAAAAAAkAaynR4ASBafz+f0CMgg9AYrtAZL9AYrtAZL9AYrtAZL9OZenng8Hnd6CNgLBAKKRCLy+/0KBoNOjwMAAAAAAABkPG6DAAAAAAAAAABpgGUtXCMcDiscDjs9BjIEvcEKrcESvcEKrcESvcEKrcESvbkXy1q4RjQaVTQadXoMZAh6gxVagyV6gxVagyV6gxVagyV6cy+WtQAAAAAAAACQBljWAgAAAAAAAEAaYFkLAAAAAAAAAGmAZS0AAAAAAAAApIFspwcAkiU/P9/pEZBB6A1WaA2W6A1WaA2W6A1WaA2W6M29PPF4PO70ELAXCAQUiUTk9/sVDAadHgcAAAAAAADIeNwGAQAAAAAAAADSAMtauEYoFFIoFHJ6DGQIeoMVWoMleoMVWoMleoMVWoMlenMv7lkL14jFYk6PgAxCb7BCa7BEb7BCa7BEb7BCa7BEb+7FlbUAAAAAAAAAkAZY1gIAAAAAAABAGmBZCwAAAAAAAABpgGUtAAAAAAAAAKQBPmAMrlFYWOj0CMgg9AYrtAZL9AYrtAZL9AYrtAZL9OZeLGvhGj6fz+kRkEHoDVZoDZboDVZoDZboDVZoDZbozb24DQIAAAAAAAAApAGurIVrFBcXS5IGDRrk8CTIBPQGK7QGS/QGK7QGS/SWoebNk6ZPl3bvbv45cnOlGTOkceOadDitwRK9uRfLWgAAAAAA4C7Tp0vr1rX8PNOmNXlZCwDJwG0QAAAAAACAu7TkitpUnAcAmohlLQAAAAAAAACkAZa1AAAAAAAAAJAGWNYCAAAAAAAAQBrgA8bgGkVFRU6PgAxCb7BCa7BEb7BCa7BEb7BCa7BEb+7Fshau4fV6nR4BGYTeYIXWYIneYIXWYIneYIXWYIne3IvbIMA1YrGYYrGY02MgQ9AbrNAaLNEbrNAaLNEbrNAaLNGbe7GshWuEQiGFQiGnx0CGoDdYoTVYojdYoTVYojdYoTVYojf3YlkLAAAAAAAAAGmAZS0AAAAAAAAApAGWtQAAAAAAAACQBrKdHiDdlJeX68MPP9SqVau0bt06hcNhlZaWqrKyUtnZ2fL5fCoqKtJZZ52lcePG6bjjjkvaa8+ZM0dTpkw5qudcc801evDBB5M2AwAAAAAAAABnsKz9hsmTJ2vJkiWNfu/AgQOKRCKKRCJaunSpZs2apUmTJmny5MnKyuIiZQAAAAAAAADNx7L2MPLy8tSnTx/16NFDOTk52rt3rzZu3KjVq1frwIEDqqqq0syZMxUOh/Xwww8n9bV79+6tESNGHPG4oUOHJvV1W7NBgwY5PQIyCL3BCq3BEr3BCq3BEr3BCq3BEr25F8vabzj77LM1cuRIjRgxQieddFKjx2zfvl333HOP/v73v0uS5s+fr5EjR+qSSy5J2hyDBw/Wvffem7TzAQAAAAAAAEhvLGu/4eabbz7iMccee6weeeQRbd++Xe+8844k6S9/+UtSl7U4etFoVJLk8/kcnQOZgd5ghdZgid5ghdZgid4yVG6u+XloDZbozb1Y1jaTx+PR+PHjE8vaTz/91OGJEA6HJfGDCjboDVZoDZboDVZoDZboLUPNmCFNmybt3t38c+Tm1p6niWgNlujNvVjWtkDXrl0TjysrKx2cBAAAAAAAJIwbV/sXALQyWU4P0JqtX78+8bigoMDBSQAAAAAAAAC0dlxZ20yRSET/8z//k/h69OjRST3/rl279NJLL2n9+vXatWuXcnNzlZ+fr0AgoH79+snj8ST19QAAAAAAAAA4i2XtUdi7d682b96sN998U3/84x+1Y8cOSVKfPn00adKkpL7Wa6+9ptdee63R75100kmaOHGirr766hYvbWtqarR169bDHnP88ce36DUAAAAAAAAAHBnL2sP44IMPNHbs2MMec+GFF+qRRx5Rx44djaaS/vnPf2rq1Kl69dVX9cc//lEdOnRo9rm2bdumYcOGHfaYRYsWNfi1QYMGSar99MG6m1rX5/V6VVRUJKn2KuTS0tIGx/h8PhUWFkqqvTF23ScZ1pefny+/3y9JCoVCisViDY4pLCyUz+eT1+tVJBJRcXFxg2OKiork9XoVi8UUCoUafZ/p+J4kNfp+eE/Ov6doNHrQjdzd8J4k9/0+ueE91R1Tf/bW/p7c+Pvklvfk9Xpd957c+PvkhvdU/2ebW95Tfbyn9HpPsVhMsViswUyt+T258ffJDe8pGo0m/lnqlvckue/3yS3v6Zv/P8EN7+mbWst7qvv1ZGFZ20w+n0/33XefLrvssqSet0ePHrrkkks0YsQI9e3bV127dk1c/bp8+XI98cQT2rBhgyRp8eLFmjhxombPnq2sLG4/XFRU1Oh/KYFUqP8PDSCV+HRXWKr7H8yH+h+oQLLwsw2W/H5/o/8HH0g2n8/HzzeYoTX38sTj8bjTQ6SrcDisxx57TJIUj8dVUVGhL7/8Up988okOHDggSTr77LN1//33q1evXi1+va+//lq5ubmHXbzu27dP//mf/6k5c+Ykfu23v/2trrjiiqN6rUAgoEgkou7du2vhwoWHPZbbIAAAAAAAAACpx7K2GSKRiB544AHNnTtXUu2fZsybN0/9+/c3ef2amhqNGzdOK1askCT17dtXS5YsOapz1C1r/X6/gsFgKsY0F4lEJClx+TuQSvQGK7QGS/QGK7QGS/QGK7QGS/TmXvy7883g9/s1a9Ys/fjHP5ZUe6+KCRMmqLq62uT1s7Ky9LOf/Szx9bp16474IWGZoLS0tNF7nACpQG+wQmuwRG+wQmuwRG+wQmuwRG/uxbK2Be644w7l5uZKkj7//HO9+eabZq89fPhwtW3bNvF13X1sAQAAAAAAALROLGtb4JhjjtHQoUMTX3/00Udmr922bVvl5eUlvi4vLzd7bQAAAAAAAADJx7K2hTp37px4vHPnTtPX3rNnT+Jxhw4dTF8bAAAAAAAAQHKxrG2h+vcH8fl8Zq8bDoe1e/fuxNf5+flmrw0AAAAAAAAg+bKdHqA1Ky8v18qVKxNf9+7d2+y1n3322cTjTp06acCAAWavna4sl+UAvcEKrcESvcEKrcESvcEKrcESvbkXy9p6du7cqS5dujTp2JqaGt11112qqqqSJLVv314XXXRRs1+7srJSOTk5TTr2ww8/1GOPPZb4+tJLL1V2Nr+VhYWFTo+ADEJvsEJrsERvsEJrsERvsEJrsERv7sVtEOqZP3++Ro0apXnz5h10i4FvWrt2rX74wx9qwYIFiV+7+eabD/rArzqbN29Wjx49En/NmTOn0XO+/PLLGj16tObNm6ddu3Y1ekwsFtPs2bN19dVXKxaLSaq9Z+6UKVOO5m0CAAAAAAAASENcjvkNxcXFmjx5srKzs9W7d2+dfPLJ8vl88ng82rlzp9auXauNGzce9JxRo0YlZWG6evXqg167V69e8vl8qq6uViQSUTAYPGiJ7PV69cQTT3C/2n8Jh8OS+NMl2KA3WKE1WKI3WKE1WKI3WKE1WKI392JZW0+7du0Sjw8cOKB169Zp3bp1hzy+Y8eOmjJlin7yk5+oTZs2SZujKa89ePBgzZo1S3369Ena67Z20WhUEj+oYIPeYIXWYIneYIXWYIneYIXWYIne3ItlbT3XXXedRowYoWXLlmnVqlVav369SkpKErcl6Nixo/Lz89W/f3+dc845Gj16dJPvM3skY8aM0cknn6xgMKhgMKhwOKzy8nLt3LlT8Xhcubm5OuGEEzRkyBBdcsklOuOMM5LyugAAAAAAAADSA8vab+jVq5d69eql66+/PinnO+GEE1RSUnLE49q3b69hw4Zp2LBhSXldAAAAAAAAAK0LHzAGAAAAAAAAAGmAZS0AAAAAAAAApAFugwDXyM/Pd3oEZBB6gxVagyV6gxVagyV6gxVagyV6cy9PPB6POz0E7AUCAUUiEfn9fgWDQafHAQAAAAAAADIet0EAAAAAAAAAgDTAshauEQqFFAqFnB4DGYLeYIXWYIneYIXWYIneYIXWYIne3It71sI1YrGY0yMgg9AbrNAaLNEbrNAaLNEbrNAaLNGbe3FlLQAAAAAAAACkAZa1AAAAAAAAAJAGWNYCAAAAAAAAQBpgWQsAAAAAAAAAaYAPGINrFBYWOj0CMgi9wQqtwRK9wQqtwRK9wQqtwRK9uRfLWriGz+dzegRkEHqDFVqDJXqDFVqDJXqDFVqDJXpzL26DAAAAAAAAAABpgGUtXKO4uFjFxcVOj4EMQW+wQmuwRG+wQmuwRG+wQmuwRG/uxbIWAAAAAAAAANIAy1oAAAAAAAAASAMsawEAAAAAAAAgDbCsBQAAAAAAAIA0wLIWAAAAAAAAANKAJx6Px50eAvYCgYAikYj8fr+CwaDT4yRFLBaTJHm9XocnQSagN1ihNViiN1ihNViiN1ihNViiN/fKdnoAIFn4AQVL9AYrtAZL9AYrtAZL9AYrtAZL9OZe3AYBrhGLxRJ/sgSkGr3BCq3BEr3BCq3BEr3BCq3BEr25F8tauEYoFFIoFHJ6DGQIeoMVWoMleoMVWoMleoMVWoMlenMvlrUAAAAAAAAAkAZY1gIAAAAAAABAGmBZCwAAAAAAAABpgGUtAAAAAAAAAKQBlrUAAAAAAAAAkAY88Xg87vQQsBcIBBSJROT3+xUMBp0eBwAAAAAAAMh4XFkLAAAAAAAAAGmAZS1cIxqNKhqNOj0GMgS9wQqtwRK9wQqtwRK9wQqtwRK9uVe20wMAyRIOhyVJPp/P2UGQEegNVmgNlugNVmgNlugNVmgNlujNvbiyFgAAAAAAAADSAMtaAAAAAAAAAEgDLGsBAAAAAAAAIA2wrAUAAAAAAACANMAHjME1vF6v0yMgg9AbrNAaLNEbrNAaLNEbrNAaLNGbe3ni8Xjc6SFgLxAIKBKJyO/3KxgMOj0OAAAAAAAAkPG4DQIAAAAAAAAApAGWtXCNSCSiSCTi9BjIEPQGK7QGS/QGK7QGS/QGK7QGS/TmXixr4RqlpaUqLS11egxkCHqDFVqDJXqDFVqDJXqDFVqDJXpzL5a1AAAAAAAAAJAGWNYCAAAAAAAAQBpgWQsAAAAAAAAAaYBlLQAAAAAAAACkgWynBwCSxefzOT0CMgi9wQqtwRK9wQqtwRK9wQqtwRK9uZcnHo/HnR4C9gKBgCKRiPx+v4LBoNPjAAAAAAAAABmP2yAAAAAAAAAAQBpgWQvXCIfDCofDTo+BDEFvsEJrsERvsEJrsERvsEJrsERv7sWyFq4RjUYVjUadHgMZgt5ghdZgid5ghdZgid5ghdZgid7ci2UtAAAAAAAAAKSBbKcHaExVVZWCwaC2b9+ubt26aejQoWrfvr3TYwEAAAAAAABAypgta/fv36/nnntOktStWzdddNFFjR63cOFC3XnnnSovL0/8Wm5urqZPn66rr77aZFYAAAAAAAAAsGZ2G4SlS5dq6tSpuu222/TZZ581eswHH3ygCRMmqLy8XPF4PPHXrl27dNttt+nZZ5+1GhcAAAAAAAAATJldWbts2bLE4zFjxjR6zD333KPq6mp5PB61b99ep5xyirZt26bS0lLF43H94he/0MUXX6y8vDyjqdGa5OfnOz0CMgi9wQqtwRK9wQqtwRK9wQqtwRK9uZfZsvaTTz6RJJ1wwgk64YQTGnx/zZo1+vjjj+XxeNSjRw/NmTNHhYWFqqmp0dSpUzV37lxVVFRo/vz5+r//9/9ajY1WxO/3Oz0CMgi9wQqtwRK9wQqtwRK9wQqtwRK9uZfZbRA2bdokj8ejvn37Nvr9N954I/H41ltvVWFhoSQpKytL06ZNU7t27SRJb7/9duqHBQAAAAAAAABjZsvaaDQqSeratWuj33///fclSW3bttWoUaMO+l6XLl00dOhQxeNxhUKhlM6J1isUCtEHzNAbrNAaLNEbrNAaLNEbrNAaLNGbe5ndBmH//v21L5jd8CVramq0atUqeTwenXbaacrJyWlwTN3l3Tt37kztoGi1YrGY0yMgg9AbrNAaLNEbrNAaLNEbrNAaLNGbe5ldWVu3gK27wra+Tz/9VJWVlZKkM844o9Hne71eSVJ1dXVqBgQAAAAAAAAAB5kta48//njF43F9+umnDb63ZMmSxONhw4Y1+vyvv/5akhq96hYAAAAAAAAAWjuzZe3pp58uSdq4caOWLl2a+PW9e/fqb3/7m6Ta+9UOHz680edv2LBBktSjR4/UDgoAAAAAAAAADjC7Z+3YsWP17LPPSpJuuukm/fjHP1bXrl01f/58bd26VR6PR9/+9reVm5vb4Lm7du3Shg0b5PF4dMopp1iNDAAAAAAAAABmzJa13/rWtzRy5Ei98cYbqqys1G9/+9uDvt+2bVv97Gc/a/S5r7/+uqqrq+XxeBQIBCzGRStUWFjo9AjIIPQGK7QGS/QGK7QGS/QGK7QGS/TmXmbLWkn6wx/+oEmTJum111476Nc7dOigX//61+rfv3+jz6u7TYIkjRgxIqUzovXy+XxOj4AMQm+wQmuwRG+wQmuwRG+wQmuwRG/uZbqsPeaYYzR79mytXbtWH3zwgXbv3q3jjz9eF154obp06dLoc8rLy1VYWKgTTzxRHTt2VO/evS1HBgAAAAAAAAATnng8Hnd6CNgLBAKKRCLy+/0KBoNOj5MUxcXFkqRBgwY5PAkyAb3BCq3BEr3BCq3BEr3BCq3BEr25V5bTAwAAAAAAAAAAWNYCAAAAAAAAQFpgWQsAAAAAAAAAaSCpHzA2a9asg77+2c9+dsjvtUT98wIAAAAAAACAGyR1WTtz5kx5PJ7E1/WXqt/8XkuwrAUAAAAAAADgNkld1kpSPB6XpEYXs3Xfa4lkLXzhPkVFRU6PgAxCb7BCa7BEb7BCa7BEb7BCa7BEb+6V1GXtlClTmvU9IBm8Xq/TIyCD0Bus0Bos0Rus0Bos0Rus0Bos0Zt7eeLJuNwVrU4gEFAkEpHf71cwGHR6nKSIxWKS+IEFG/QGK7QGS/QGK7QGS/QGK7QGS/TmXllODwAkSygUUigUcnoMZAh6gxVagyV6gxVagyV6gxVagyV6cy+WtQAAAAAAAACQBlrdsraystLpEQAAAAAAAAAg6cyWtdOmTVNVVVWLzhEMBnXxxRcnaSIAAAAAAAAASB9my9onn3xSo0eP1rp16476ufF4XLNmzdIVV1yhTZs2pWA6AAAAAAAAAHCW6W0QQqGQRo8erdmzZzf5OVu2bNHYsWP10EMP6cCBAymcDgAAAAAAAACc44nH43GLFxo2bJi++uqr2hf1eHT++edr1qxZ6tat2yGf89xzz+muu+5SRUWF6sb8wQ9+oP/3//6fxciuFggEFIlE5Pf7FQwGnR4HAAAAAAAAyHhmV9YuXrxYo0aNSnz91ltv6dvf/rYWL17c4NiKigpNmjRJkydPTixqfT6fHn/8cRa1AAAAAAAAAFzJbFnbuXNnPfbYY3rwwQd1zDHHSJLKysr0ox/9SP/1X/+V+PCxDz/8UCNHjtSCBQsUj8cVj8c1YsQILV68WN/73vesxkUrFI1GFY1GnR4DGYLeYIXWYIneYIXWYIneYIXWYIne3Cvb+gWvvvpqnXHGGZo0aZI+/vhjxeNxPf3003rvvfd07rnn6sknn1RNTY3i8bjatWun22+/XTfffLP1mGiFwuGwJMnn8zk7CDICvcEKrcESvcEKrcESvcEKrcESvbmX6QeM1Tn55JP14osvasKECcrKqh1h/fr1mj17tqqrqxWPx9WnTx+99NJLLGoBAAAAAAAAZATzK2sTL5ydrTvvvFMVFRV6+umn5fF4Eh8i1qdPHy1atChxuwQAAAAAAAAAcDtHrqyVpN27d2vixIn685//fNCi1uPxaMOGDbrhhhtUWlrq1HgAAAAAAAAAYMqRZW3dh4i9+OKLiQ8RO/fcczV27NjE0nb58uW66KKL9OqrrzoxIgAAAAAAAACYMl3W1tTU6Ne//rXGjRunkpKSxIeITZ8+XX/961/1u9/9Tr/73e+Um5ureDyunTt36sYbb9Ttt9+uvXv3Wo6KVsjr9crr9To9BjIEvcEKrcESvcEKrcESvcEKrcESvbmXJ153KWuKbdq0SZMmTdKqVasOujftI488ogEDBhx07JYtW/Tv//7v+vDDD+XxeCRJJ510kn7/+9/r1FNPtRjX9QKBgCKRiPx+v4LBoNPjAAAAAAAAABnP7MrakSNHHrSovfbaa7Vo0aIGi1pJKigo0HPPPadbb71Vbdq0kSR9+eWXuvTSS/XII49YjQwAAAAAAAAAZsyurC0oKJAkdenSRQ8++KC+853vNOl5wWBQP/3pTxUOhyXVfgDZ5s2bUzZnpnDjlbWRSESS5Pf7HZ4EmYDeYIXWYIneYIXWYIneYIXWYIne3Mv0nrXnnnuuFi9e3ORFrVS7VHz99dc1bty4FE4GNygtLVVpaanTYyBD0Bus0Bos0Rus0Bos0Rus0Bos0Zt7mS1r77rrLv31r39Vfn7+UT83JydHv/nNb/SHP/xBnTp1SsF0AAAAAAAAAOCsbKsXuvnmm1t8jksvvVRDhw5NwjQAAAAAAAAAkF5Mb4OQDMcff7zTIwAAAAAAAABA0rW6ZS0AAAAAAAAAuJHZbRCAVPP5fE6PgAxCb7BCa7BEb7BCa7BEb7BCa7BEb+7licfjcSdeeNeuXfrggw+0Zs0alZeXq7KyUjU1NUd8nsfj0cyZMw0mdLdAIKBIJCK/369gMOj0OAAAAAAAAEDGM7+yNhqN6r777tPzzz+vqqqqZp2DZS0AAAAAAAAAtzFd1m7evFlXXHGFvvrqKzXlgl6Px9PgOI/Hk6rx0MqFw2FJUmFhocOTIBPQG6zQGizRG6zQGizRG6zQGizRm3uZLWvj8bh+/OMfa+vWrZKkfv366fLLL9fSpUu1fPnyxO0NKisrtWXLFq1YsUKrV6+WJOXk5OhnP/uZ8vLyrMZFKxSNRiXxgwo26A1WaA2W6A1WaA2W6A1WaA2W6M29zJa1L7/8stauXSuPx6Pzzz9fTz75pLKzs1VSUqLly5dLkq666qqDnvPxxx/r9ttv16effqrZs2frb3/7m3r37m01MgAAAAAAAACYybJ6oVdffVVS7W0MfvWrXyk7+8h74tNOO00vvPCChg4dqq+++ko333yzYrFYqkcFAAAAAAAAAHNmy9rVq1fL4/Ho1FNPVUFBQZOfd8wxx2jWrFlq06aNQqGQ/v73v6duSAAAAAAAAABwiNmytqysTJIa3MYgK+t/RzjUVbMnnXSShg4dqng8rgULFqRuSAAAAAAAAABwiNk9a6uqqiTVflhYfR06dEg8jkaj8vv9jT7/pJNO0ooVK/TFF1+kbki0avn5+U6PgAxCb7BCa7BEb7BCa7BEb7BCa7BEb+5ltqzt2LGjotGo9u7de9Cvd+nSJfF448aNh1zW7tq1S9L/XqELfNOh2gFSgd5ghdZgid5ghdZgid5ghdZgid7cy+w2CIWFhZKk7du3H/TrRUVFicfvvPNOo8+tqanRp59+Kknyer0pmhAAAAAAAAAAnGN2Ze2AAQO0evVqrV+//qBfHzJkiNq3b699+/bpz3/+s6677jp169btoGMef/xxbdq0SR6PR3379rUaGa1MKBSSdPAfAACpQm+wQmuwRG+w4nhr8+ZJ06dLu3c3/xy5udKMGdK4ccmbCynheG/IGLQGS/TmXmbL2rPPPlvPPPOMvvrqK4XD4cSVtp06ddKoUaP0wgsvqKysTN/73vf0k5/8RP369dPevXv1+uuva968eYnzXHrppSmds7y8XB9++KFWrVqldevWKRwOq7S0VJWVlcrOzpbP51NRUZHOOussjRs3Tscdd1xK5ti3b59efPFFLViwQKFQSDt27FDnzp11wgknaNSoUbrqqquUl5eXktdurQ71AXVAKtAbrNAaLNEbrDje2vTp0rp1LT/PtGksa1sBx3tDxqA1WKI39zJb1l544YVq166d9u/fr4ULF2rChAmJ791555168803tWvXLkUiEf3yl79s9BynnnqqfvCDH6R0zsmTJ2vJkiWNfu/AgQOKRCKKRCJaunSpZs2apUmTJmny5MnKykreHSU2bNigCRMmaM2aNQf9+rZt27Rt2zYFg0H98Y9/1EMPPaRvf/vbSXtdAAAAICO05IraVJwHAADgX8yWtbm5ufr973+vHTt2NLgJ8nHHHac5c+boxhtv1ObNmxt9/vDhw/Xoo4+qbdu2FuNKkvLy8tSnTx/16NFDOTk52rt3rzZu3KjVq1frwIEDqqqq0syZMxUOh/Xwww8n5TW3bt2q8ePHKxKJSJI8Ho+GDx+uwsJClZWVadmyZYrFYtqxY4d+/OMf6y9/+YtGjBiRlNcGAAAAAAAA4ByzZa0kfe973zvk9wYOHKilS5dq0aJFWr58uUpLS+XxeFRYWKiRI0fq3HPPNZnx7LPP1siRIzVixAiddNJJjR6zfft23XPPPfr73/8uSZo/f75GjhypSy65pMWvP2nSpMSitqCgQE888YQGDBiQ+H55ebluueUWLV++XPv379dNN92kd999V507d27xawMAAAAAAABwjumy9kjatWunMWPGaMyYMY7NcPPNNx/xmGOPPVaPPPKItm/frnfeeUeS9Je//KXFy9olS5ZoxYoVkmr/Xjz11FPq16/fQcfk5eXpySef1EUXXaRwOKxoNKo//OEPuuOOO1r02gAAAAAAAACclbwbrWYYj8ej8ePHJ77+9NNPW3zOp556KvH4yiuvbLCordOhQwdNnTo18fVf/vIXHThwoMWv39oVFhYmPrgOSDV6gxVagyV6gxVagyV6gxVagyV6cy+WtS3QtWvXxOPKysoWnauysjJxla4kXXXVVYc9ftSoUcrJyZEkRaNRvf/++y16fTfw+Xzy+XxOj4EMQW+wQmuwRG+wQmuwRG+wQmuwRG/ulTbL2ueff15TpkzRrbfe6vQoTbZ+/frE44KCghad66OPPlJVVZWk2itnTz/99MMe7/V6FQgEEl/XX/QCAAAAAAAAaH3SZlm7cuVKzZ07V3PnznV6lCaJRCL6n//5n8TXo0ePbtH5Pv/888Tjvn37Kjv7yLcTPvXUUxOPN2zY0KLXd4Pi4mIVFxc7PQYyBL3BCq3BEr3BCq3BEr3BCq3BEr25V1p9wFi627t3rzZv3qw333xTf/zjH7Vjxw5JUp8+fTRp0qQWnfuLL75IPG7qVbrHH3984nFzl7U1NTXaunVrk18HAAAAAAAAQGqwrD2MDz74QGPHjj3sMRdeeKEeeeQRdezYsUWvtXPnzsTjY489tknP6d69e+JxNBpt1utu27ZNw4YNO+wxixYtavBrgwYNSrxuOBxu8H2v16uioiJJtVchl5aWNjjG5/MlboYdDocbfQ/5+fny+/2SpFAopFgs1uCYwsLCxH1aysrKGv2TpaKiInm9XsViMYVCoUbfZ7q+p0P9SRnvydn3VFZWdtB/793wniT3/T654T2VlZU1mL21vyc3/j655T3VcdN7cuPvkxveU/2fbY68pxNOUPiSSxq+p507VfSvf9MvEgiodOjQhu/piy9UuHhx7Xs6+2xFG5nHLb9PbnlPu3fv1r59+xrM1Jrfkxt/n9zwnsrKytSuXbvE1254T5L7fp/c8p6++f8T3PCevqm1vKe6X08WlrXN5PP5dN999+myyy5Lyvnqf0CZ1+tt0nPqH9fSDzgDAAAAAAAA4CxPPB6PJ/OE27dvb/KVofXdddddeuqpp+TxeLR58+ZkjtRs4XBYjz32mCQpHo+roqJCX375pT755BMdOHBAknT22Wfr/vvvV69evVr0WldddVXiQ8ImT56s22677YjPWb58ucaPHy9JatOmjTZt2tTk1wsEAopEIurevbsWLlx42GNby20Q6v50JNl/ogE0ht5ghdZgid5gxfHWCgqkkpKWn6dHD2nLlpafBynleG/IGLQGS/TmXkm/svaCCy7QL37xC11xxRXJPrW5wsJC3XvvvQ1+PRKJ6IEHHtDcuXP17rvv6tJLL9W8efPUv3//Zr9W+/btE4/379/fpOfs27cv8bipV+N+U1ZWVqtZxgIAAAAAAABulvRlbTQa1eTJk/Xiiy/q/vvv13HHHZfsl3Cc3+/XrFmzlJubq9mzZysajWrChAlasmSJ2rRp06xz5uTkJB43dn+NxtQ/rv7zM1XdvU4AC/QGK7QGS/QGK7QGS/QGK7QGS/TmXlmpOvGbb76pb3/72/rb3/6Wqpdw3B133KHc3FxJ0ueff64333yz2efq0qVL4vH27dub9Jxt27YlHtfdKDmTeb3eZl9hDBwteoMVWoMleoMVWoMleoMVWoMlenOvpC9rf/rTnyo7u/aC3V27dun222/XNddco5Ij3BNq6tSpev/99/Xee+8le6SUOeaYYzS03ifEfvTRR80+V/173m5p4n2vtm7dmnjcu3fvZr+2W8RisSZflQy0FL3BCq3BEr3BiuOt/euCi7Q5D1LK8d6QMWgNlujNvZK+rL399tu1cOFCnXrqqYlfW758uS688EI99dRTh3yez+dTQUGBCgoKkj1SSnXu3DnxeOfOnc0+T58+fRKP161bl/gAs8P55JNPEo9Z1kqhUEihUMjpMZAh6A1WaA2W6A1WHG9txgypb9/aDwhr7l99+9aeB2nP8d6QMWgNlujNvZJ+z1pJ6t+/v15++WU99thjevDBBxWLxVRZWalp06bp5Zdf1syZM1VYWJiKlzZXWlqaeNySWxEMHTpU7du3V1VVlfbs2aPi4mIFAoFDHl9VVaWVK1cmvv7Wt77V7NcGAAAAMsq4cbV/AQAApJmU3bM2KytLN998sxYvXqyzzjor8esrVqzQRRddpMcee0zxeDxVL2+ivLz8oIVpS65uzcnJOWjhOnfu3MMe/8orr6iiokJS7ZJ4+PDhzX5tAAAAAAAAAM5L2bK2Ts+ePTVv3jzdf//9ys3NVTwe1969ezVjxgxddtll2rBhQ6pHaLKjuY1BTU2N7rrrLlVVVUmS2rdvr4suuqhFr3/dddclHs+bN++Ql7Pv3btXv/71rxNfX3vttYn7BAMAAAAAAABoncw2fNdee61GjhypO+64Q6+//rri8bhWrlyp73znOxoyZEiTz+PxeI541WlzzZ8/Xy+88IJ+9KMf6bvf/a5yD/GBAWvXrtW9996rt956K/FrN998s/Ly8hocu3nz5oOuen3ooYc0fvz4Rs970UUX6cwzz9SKFStUVVWl6667Tk888YT69++fOKa8vFwTJ07Uxo0bJdVeVTthwoRmvFsAAAAAAAAA6cT0csz8/Hw98cQTevHFF3X77bersrJSVVVVev/995v0/Hg8Lo/Hk9IZi4uLNXnyZGVnZ6t37946+eST5fP55PF4tHPnTq1duzaxKK0zatQoTZkyJSmv/8gjj+iSSy5RaWmpNm/erIsvvljDhw9Xz549VVZWpmXLlmnv3r2SpOzsbD366KMHfcgZAAAAAAAAgNbJ/N+dj0ajeuONN1RRUSGPxyOPx5M2965t165d4vGBAwe0bt06rVu37pDHd+zYUVOmTNFPfvITtWnTJikzHH/88Zo7d64mTJigNWvWKB6P67333tN777130HFdu3bVQw89pHPOOScpr+sGgwYNcnoEZBB6gxVagyV6gxVagyV6gxVagyV6cy/TZe3LL7+sadOmaceOHYklbc+ePXX55ZdbjnFI1113nUaMGKFly5Zp1apVWr9+vUpKSrRr1y5JtcvZ/Px89e/fX+ecc45Gjx6tnJycpM/Ru3dvvfzyy1qwYIEWLFigUCikHTt2qFOnTjrxxBM1atQojR8/vtHbLgAAAAAAAABonTxxg8tad+zYoTvuuEOvvvqqpNrbGWRlZeknP/mJbr/9dnm93lSPgG8IBAKKRCLy+/0KBoNOj5MU0WhUUu19fIFUozdYoTVYojdYoTVYojdYoTVYojf3SvmVtfPmzdMvfvELff3114nbHfTp00cPPfSQBg8enOqXRwYJh8OS+EEFG/QGK7QGS/QGK7QGS/QGK7QGS/TmXilb1m7dulU///nP9dZbb0mqvZo2OztbN998s6ZMmXLQ/WEBAAAAAAAAINOlZFn79NNP61e/+pUqKioSV9P269dPs2bN0sCBA1PxkgAAAAAAAADQqiV9WTtu3DitWLFCUu3VtG3bttVPf/pT/fu//7uys00/zwwAAAAAAAAAWo2kb0/ff/99eTwexeNxDRo0SDNnzlTfvn2T/TIAAAAAAAAA4CopudS1Xbt2mjJlim655RZlZWWl4iWABrxer9MjIIPQG6zQGizRG6zQGizRG6zQGizRm3t54nU3lU2SMWPG6MEHH1Tv3r2TeVokWSAQUCQSkd/vVzAYdHocAAAAAAAAIOMl/craF154QR6PJ9mnBQAAAAAAAABXS/o9CljUwimRSESRSMTpMZAh6A1WaA2W6A1WaA2W6A1WaA2W6M29uKEsXKO0tFSlpaVOj4EMQW+wQmuwRG+wQmuwRG+wQmuwRG/uxbIWAAAAAAAAANIAy1oAAAAAAAAASAMsawEAAAAAAAAgDbCsBQAAAAAAAIA0kO30AECy+Hw+p0dABqE3WKE1WKI3WKE1WKI3WKE1WKI39/LE4/G400PAXiAQUCQSkd/vVzAYdHocAAAAAAAAIONxGwQAAAAAAAAASAMsa+Ea4XBY4XDY6TGQIegNVmgNlugNVmgNlugNVmgNlujNvVjWwjWi0aii0ajTYyBD0Bus0Bos0Rus0Bos0Rus0Bos0Zt7sawFAAAAAAAAgDTAshYAAAAAAAAA0gDLWgAAAAAAAABIAyxrAQAAAAAAACANZDs9AJAs+fn5To+ADEJvsEJrsERvsEJrsERvsEJrsERv7uWJx+Nxp4eAvUAgoEgkIr/fr2Aw6PQ4AAAAAAAAQMbjNggAAAAAAAAAkAZY1sI1QqGQQqGQ02MgQ9AbrNAaLNEbrNAaLNEbrNAaLNGbe3HPWrhGLBZzegRkEHqDFVqDJXqDFVqDJXqDFVqDJXpzL66sBQAAAAAAAIA0wLIWAAAAAAAAANIAy1oAAAAAAAAASAMsawEAAAAAAAAgDfABY3CNwsJCp0dABqE3WKE1WKI3WKE1WKI3WKE1WKI392JZC9fw+XxOj4AMQm+wQmuwRG+wQmuwRG+wQmuwRG/uxW0QAAAAAAAAACANsKyFaxQXF6u4uNjpMZAh6A1WaA2W6A1WaA2W6A1WaA2W6M29WNYCAAAAAAAAQBpgWQsAAAAAAAAAaYBlLQAAAAAAAACkAZa1AAAAAAAAAJAGWNYCAAAAAAAAQBrwxOPxuNNDwF4gEFAkEpHf71cwGHR6nKSIxWKSJK/X6/AkyAT0Biu0Bkv0Biu0Bkv0Biu0Bkv05l7ZTg8AJAs/oGCJ3mCF1mCJ3mCF1mCJ3mCF1mCJ3tyL2yDANWKxWOJPloBUozdYoTVYojdYoTVYojdYoTVYojf3YlkL1wiFQgqFQk6PgQxBb7BCa7BEb7BCa7BEb7BCa7BEb+7FbRAAAHDIrl3Sli1SRYXUsaNUUCB16uT0VAAAAAAAp3BlLQAAhuJx6R//kMaNk/LypAEDpDPPrP3PvDzpyitrv8/HfwIAAABA5mFZCwCAkZUrpVNPlS68UHruOam6+uDvV1dL8+fXfv/UU2uPBwAAAABkDpa1AAAYeOMN6dxzpTVrmnb8mjW1x2/Zktq5AAAAAADpg2UtAAAptnKlNHasVFl5dM+rrJReeUXavj01cwEAAAAA0osnHueueJkoEAgoEonI7/crGAw6PQ6AVoAPw2qeeLz2lgZNvaK2MQMHSh9/LHk8yZsLAAAAAJB+uLIWAHBIfBhWy731VssWtZL06afS0qVJGQcAAAAAkMZY1sI1otGootGo02MgQ2RCb3wYVnL84Q8te/7JJ0d18snRFp8HaIpM+NmG9EBrsERvsEJrsERv7pXt9ABAsoTDYUmSz+dzdhBkBLf39sYbR3eP1boPw3rhBWnkyNTO1prs2lX796QlRo6sbe3/+/982rWLW08gtdz+sw3pg9Zgid5ghdZgid7ciytrAQAHacmHYY0dyxW29W3Z0vCK5OaqrpZKSpJzLgAAAABAemJZCwBIiMelf/u3o1/U1qmslK67jnvY1qmoSO75du9O7vkAAAAAAOmFZS0AIIEPw0qujh2Te77c3OSeDwAAAACQXljWAgASkvUhVnwYVq2CAqlNm+ScKztb6tEjOecCAAAAAKQnPmAMruH1ep0eARnEjb0l48Ow6jz/vPgwLNW+/7Fjpfnzm3+OnTtrWxs7lr+fSD03/mxDeqI1WKI3WKE1WKI39/LE49xZMBMFAgFFIhH5/X4Fg0GnxwGQBtaulQYMSO75+vVL3vlaq3/8Q7rwwuSc5/zzW34eAAAAAED64jYIAABJfBhWqpx/fsuX4AMHSuedl5RxAAAAAABpjGUtXCMSiSgSiTg9BjKEG3vjw7BSw+ORnn5ayslp3vO/9a2IHn00Io8nuXMBjXHjzzakJ1qDJXqDFVqDJXpzL5a1cI3S0lKVlpY6PQYyhBt748OwUmfIkNr7AR/twjYnR7rjjlJ17Oiu1pC+3PizDemJ1mCJ3mCF1mCJ3tyLZS0AQNL/fhhWMvBhWA2NHCm9/XbTb4kwcGDt8QUFqZ0LAAAAAJA+WNYCABImTEiv87jNkCHSJ5/UfljYuHENr2TOzpauvLL2+x9/XHs8AAAAACBzZDs9AAAgfdR9GNaaNc0/Bx+GdXgeT+3f5/PPl3btkkpKaj+MLTe39tYRXJEMAAAAAJmLZS0AIKHuw7DOPVeqrDz65+fkSH/6k/gwrCbq1InlLAAAAADgf7GshWv4fD6nR0AGcXNvdR+GNXbs0S1sc3Jqn8e/up9cbm4N6YfeYIXWYIneYIXWYIne3MsTj8fjTg8Be4FAQJFIRH6/X8Fg0OlxAKShlSulf/u3pt0SYeDA2itqWdQCAAAAANB8fMAYAKBRfBgWAAAAAAC2uA0CXCMcDkuSCgsLHZ4EmSBTeuPDsJyXKa0hPdAbrNAaLNEbrNAaLNGbe3FlLVwjGo0qGo06PQYyRCb21qmT1K+fdMYZtf/JotZGJrYG59AbrNAaLNEbrNAaLNGbe7GsBQAAAAAAAIA0wLIWAAAAAAAAANIAy1oAAAAAAAAASAMsawEAAAAAAAAgDWQ7PQCQLPn5+U6PgAxCb7BCa7BEb7BCa7BEb7BCa7BEb+7licfjcaeHgL1AIKBIJCK/369gMOj0OAAAAAAAAEDG4zYIAAAAAAAAAJAGWNbCNUKhkEKhkNNjIEPQG6zQGizRG6zQGizRG6zQGizRm3txz1q4RiwWc3oEZBB6gxVagyV6gxVagyV6gxVagyV6cy+urAUAAAAAAACANMCyFgAAAAAAAADSAMtaAAAAAAAAAEgDLGsBAAAAAAAAIA3wAWNwjcLCQqdHQAahN1ihNViiN1ihNViiN1ihNViiN/diWQvX8Pl8To+ADEJvsEJrsERvsEJrsERvsEJrsERv7sVtEAAAAAAAAAAgDbCshWsUFxeruLjY6TGQIegNVmgNlugNVmgNlugNVmgNlujNvVjWAgAAAAAAAEAaYFkLAAAAAAAAAGmAZS0AAAAAAAAApAGWtQAAAAAAAACQBljWAgAAAAAAAEAa8MTj8bjTQ8BeIBBQJBKR3+9XMBh0epykiMVikiSv1+vwJMgE9AYrtAZL9AYrtAZL9AYrtAZL9OZe2U4PACQLP6Bgid5ghdZgid5ghdZgid5ghdZgid7ci9sgwDVisVjiT5aAVKM3WKE1WKI3WKE1WKI3WKE1WKI392JZC9cIhUIKhUJOj4EMQW+wQmuwRG+wQmuwRG+wQmuwRG/uxbIWAAAAAAAAANIAy1oAAAAAAAAASAMsawEAAAAAAAAgDbCsBQAAAAAAAIA0wLIWAAAAAAAAANKAJx6Px50eAvYCgYAikYj8fr+CwaDT4wAAAAAAAAAZjytrAQAAAAAAACANsKyFa0SjUUWjUafHQIagN1ihNViiN1ihNViiN1ihNViiN/fKdnoAIFnC4bAkyefzOTsIMgK9wQqtwRK9wQqtwRK9wQqtwRK9uRdX1gIAAAAAAABAGmBZCwAAAAAAAABpgGUtAAAAAAAAAKQBlrUAAAAAAAAAkAb4gDG4htfrdXoEZBB6gxVagyV6gxVagyV6gxVagyV6cy9PPB6POz1Eutm8ebPefvttvf/++/rss8+0detWVVZWqmPHjjruuOM0ZMgQjR07VmeddVZSX/fdd9/VlVdeeVTPGTFihObMmXPUrxUIBBSJROT3+xUMBo/6+QAAAAAAAACSiytr6/n000/1n//5n1q1alWj349Go4pGo/rss8/0zDPP6KyzztLDDz+sHj16GE8KAAAAAAAAwG1Y1tbzxRdfNFjUnnzyyerbt6+6dOmiXbt26aOPPtJXX30lSXrvvfd06aWX6vnnn1dhYWFSZ/H7/frud797xON69+6d1NdtzSKRiKTav3dAqtEbrNAaLNEbrNAaLNEbrNAaLNGbe7GsbUTPnj31gx/8QJdffrmOO+64g75XU1OjuXPn6q677tLevXsViUQ0adIkvfjii/J4PEmb4aSTTtK9996btPNlgtLSUkn8oIINeoMVWoMleoMVWoMleoMVWoMlenMvlrX1dO/eXQ899JDGjRunNm3aNHpMVlaWrr76anXu3Fk/+clPJEkrV67U0qVLdf755xtOCwAAAAAAAMBNspweIJ2cddZZGj9+/CEXtfV973vf0+DBgxNfL1myJJWjAQAAAAAAAHA5lrUtMHTo0MTjzZs3OzgJAAAAAAAAgNaOZW0L1L9HbXV1tYOTAAAAAAAAAGjtuGdtC6xbty7x+Pjjj0/quWOxmF5//XWtXbtW0WhUHTp00LHHHqvBgwdr4MCBys7mt+6bfD6f0yMgg9AbrNAaLNEbrNAaLNEbrNAaLNGbe7Hxa6aSkhK98847ia/POeecpJ5/1apV+tGPftTo9/x+v2688Ub9+Mc/Vtu2bVv0OjU1Ndq6dethj0n2IjpVCgsLnR4BGYTeYIXWYIneYIXWYIneYIXWYIne3ItlbTPdc889iVsf9OjRQyNHjjR77UgkohkzZmjhwoV64okndOyxxzb7XNu2bdOwYcMOe8yiRYsa/NqgQYMkSdFoVOFwuMH3vV6vioqKEvOWlpY2OMbn8yV+uITDYUWj0QbH5Ofny+/3S5JCoZBisViDYwoLCxN/olRcXNzoeygqKpLX61UsFlMoFGr0GN4T74n3xHviPfGeeE+8J94T74n3xHviPfGeeE+8J94T7+lo3lPdrycLy9pmmDt37kELzDvuuEPt27dPyrm7du2qSy65ROeee6769++vY489VllZWSotLdWKFSv01FNPafXq1ZKklStX6vrrr9f8+fN1zDHHJOX1W7NwOKzdu3crNzfX6VGQAXbv3q2vvvqKf/UEKbd7925J4mcbTDT2P6SBVOBnGyyVlZVpz5499IaU2717t6qrq7niESb4Z6l7eeLxeNzpIVqT4uJiXX755YlN/ZgxY/T73/8+KeeurKxU27Zt1a5du0MeE4/H9eCDD+o3v/lN4tduu+02TZ48+aheKxAIKBKJqHv37lq4cOFhj20tt0Go+9ORZP+JBtAYeoMVWoMleoMVWoMleoMVWoMlenMvrqw9Cps2bdL111+fWNT269dP999/f9LOn5OTc8RjPB6PbrvtNoXDYb3wwguSpMcff1yTJk1q1oeOZWVltZplLAAAAAAAAOBmWU4P0FqUlpbqmmuu0bZt2yTV3u/imWeecexy86lTpyYeR6NRrVy50pE5AAAAAAAAACQHy9omKC8v1zXXXKONGzdKqr158bPPPqv8/HzHZurZs6dOOOGExNeff/65Y7MAAAAAAAAAaDmWtUewe/du/Z//838SnwSXl5enZ599VieeeKLDk0ndu3dPPC4vL3dwEgAAAAAAAAAtxT1rD2PPnj364Q9/qI8//liS1KlTJz3zzDM65ZRTHJ6s1p49exKPO3To4OAk6cHJK52ReegNVmgNlugNVmgNlugNVmgNlujNvVjWHkIsFtP111+vDz/8UJJ0zDHH6Omnn9Zpp53m8GS19u7dqy+//DLxNf8llfx+v9MjIIPQG6zQGizRG6zQGizRG6zQGizRm3txG4RG7N+/XzfeeKPeeecdSVL79u31xBNPaNiwYQ5P9r9eeOEFVVVVSZI8Ho+GDx/u8EQAAAAAAAAAWoJl7TdUV1dr4sSJevPNNyVJ2dnZevTRR3Xuueem9HX37t2rmpqaJh375Zdf6r777kt8fd5556lbt26pGq3VCIVCiXsLA6lGb7BCa7BEb7BCa7BEb7BCa7BEb+7FsraeeDyuW2+9VQsXLpQkZWVl6be//a0uvvjiFp23R48eib9mzpzZ6DGrVq3SBRdcoD/96U/asWNHo8dUV1frueee06WXXqqdO3dKktq1a6c777yzRfO5RSwWUywWc3oMZAh6gxVagyV6gxVagyV6gxVagyV6cy/uWVvPn/70J82bNy/xdWFhoT744AN98MEHTXr+vffe26LX37Bhg+68807ddddd6tmzp4r+//buPTqq8t7/+GeSiIFcGIPAQIBwR0qUkoiIRUBrPBX5WWNFpBa1P2svSDkUsKJF6ykHtRUs+gOKPfUCR7u4CaL1UrEK1EtBBgwQJIpghNBJlGRISAiXZH5/zGIkECDJzDx7z573ay0XM5lnP/s75rMewjd7nt2vn9xutxISElRWViav16vy8vLQ+MTERM2dO1cDBgwI67wAAAAAAAAArEez9iQHDhxo8HzPnj3as2dPk48Pt1l7Qn19vXbv3t3gBmKn6tWrl+bMmWOrfXQBAAAAAAAAtBzNWpsYMmSI3njjDXm9Xm3atEmff/65KioqVFFRoaNHjyotLU2dO3fWoEGDdO211+qqq66Sy+WyumwAAAAAAAAAEUKz9iRTp07V1KlTIz5vSUnJOcckJibqkksu0SWXXKIf//jHEa8BAAAAAAAAgL3RrIVjZGVlWV0C4gh5gylkDSaRN5hC1mASeYMpZA0mkTfnolkLx3C73VaXgDhC3mAKWYNJ5A2mkDWYRN5gClmDSeTNuRKsLgAAAAAAAAAAQLMWDlJQUKCCggKry0CcIG8whazBJPIGU8gaTCJvMIWswSTy5lw0awEAAAAAAADABmjWAgAAAAAAAIAN0KwFAAAAAAAAABugWQsAAAAAAAAANpBkdQEAAOAblZXSvn3SoUNSaqp09KjUqpXVVQEAAAAATHAFAoGA1UXAvNzcXPl8Pnk8Hnm9XqvLiYja2lpJUnJyssWVIB6QN0RSICCtXSvNny+9/LJUV/fNa+3a1WrUKOnHP07WyJGSy2VRkYgLrG0whazBJPIGU8gaTCJvzkWzNk45sVkLALFo82bp9tulwsJzjx0wQFq8WMrJiX5dAAAAAADz2LMWjlFbWxv6zRIQbeQNkbBmjTR8+NkbtRdcUKsLLghmrbAwOH7NGkMFIu6wtsEUsgaTyBtMIWswibw5F81aOEZRUZGKioqsLgNxgrwhXJs3S/n5UnX12cfdckuRbrnlm6xVVweP27w5ygUiLrG2wRSyBpPIG0whazCJvDkXzVoAAAwLBIJbH5yrUXsm1dXSHXcE5wEAAAAAOAfNWgAADFu7tml71J7N9u3SunURKQcAAAAAYBM0awEAMGzBAnvNAwAAAACwB5q1AAAYVFkprVoVmblWrgzOBwAAAABwBpq1AAAYtG+fVFcXmbnq6qSSksjMBQAAAACwnisQ4PYk8Sg3N1c+n08ej0der9fqcgAgbmzcKA0ZErn5NmyQLrsscvMBAAAAAKzDlbUAABiUmhrZ+dLSIjsfAAAAAMA6NGvhGH6/X36/3+oyECfIG1qqSxcpMbHp43v29KtnT3+jryUlSZmZkakLkFjbYA5Zg0nkDaaQNZhE3pwryeoCgEgpLi6WJLndbmsLQVwgb2ip9HQpP19asaJp4/Pygll7+mn3aa/l5wfnAyKFtQ2mkDWYRN5gClmDSeTNubiyFgAAwyZMsNc8AAAAAAB7oFkLAIBhI0dKAwaEN0d2tjRiRETKAQAAAADYBM1aAAAMc7mkxYullJSWHZ+SIi1aFJwHAAAAAOAcNGsBALBATo60alXzG7YpKcHjcnKiUxcAAAAAwDo0a+EYycnJSk5OtroMxAnyhkjIy5PWrz/7lggVFcmqqAhmLTs7OD4vz1CBiDusbTCFrMEk8gZTyBpMIm/O5QoEAgGri4B5ubm58vl88ng88nq9VpcDAHEtEJDWrZPmzw9eNVtX981rSUlSfn7wZmIjRrD1AQAAAAA4WZLVBQAAEO9cruBNx0aOlCorpZISqapKSkuTMjOl9HSrKwQAAAAAmECzFo7h8/kkSR6Px+JKEA/IG6IlPb1hc9bn86mmhqzBDNY2mELWYBJ5gylkDSaRN+diz1o4RmlpqUpLS60uA3GCvMEUsgaTyBtMIWswibzBFLIGk8ibc9GsBQAAAAAAAAAboFkLAAAAAAAAADZAsxYAAAAAAAAAbIBmLQAAAAAAAADYQJLVBQCR4na7rS4BcYS8wRSyBpPIG0whazCJvMEUsgaTyJtzuQKBQMDqImBebm6ufD6fPB6PvF6v1eUAAAAAAAAAcY9tEAAAAAAAAADABmjWwjGKi4tVXFxsdRmIE+QNppA1mETeYApZg0nkDaaQNZhE3pyLZi0cw+/3y+/3W10G4gR5gylkDSaRN5hC1mASeYMpZA0mkTfnolkLAAAAAAAAADZAsxYAAAAAAAAAbIBmLQAAAAAAAADYAM1aAAAAAAAAALCBJKsLACKlY8eOVpeAOELeYApZg0nkDaaQNZhE3mAKWYNJ5M25XIFAIGB1ETAvNzdXPp9PHo9HXq/X6nIAAAAAAACAuMc2CAAAAAAAAABgAzRr4RhFRUUqKiqyugzECfIGU8gaTCJvMIWswSTyBlPIGkwib87FnrVwjNraWqtLQBwhbzCFrMEk8gZTyBpMIm8whazBJPLmXFxZCwAAAAAAAAA2QLMWAAAAAAAAAGyAZi0AAAAAAAAA2AB71gIAAMSYykpp3z7p0CEpNVXq0kVKT7e6KgAAAADholkLx8jKyrK6BMQR8gZTyBpOCASktWul+fOll1+W6uq+eS0xUcrPlyZMkEaOlFyulp2DvMEUsgaTyBtMIWswibw5lysQCASsLgLm5ebmyufzyePxyOv1Wl0OAAA4i82bpdtvlwoLzz12wABp8WIpJyf6dQEAAACILPasBQAAsLE1a6Thw5vWqJWC44YPDx4HAAAAILbQrIVjFBQUqKCgwOoyECfIG0wha/Ft8+bg9gbV1c07rro6eNzmzc07jrzBFLIGk8gbTCFrMIm8ORfNWgAAABsKBIJbHzS3UXtCdbV0xx3BeQAAAADEBpq1AAAANrR2bdO3PjiT7duldesiUg4AAAAAA2jWAgAA2NCCBfaaBwAAAED00awFAACwmcpKadWqyMy1cmVwPgAAAAD2R7MWAADAZvbtk+rqIjNXXZ1UUhKZuQAAAABEV5LVBQCR0q9fP6tLQBwhbzCFrMWnQ4ciO19VVdPGkTeYQtZgEnmDKWQNJpE356JZC8dITk62ugTEEfIGU8hafEpNjex8aWlNG0feYApZg0nkDaaQNZhE3pyLbRDgGLW1taqtrbW6DMQJ8gZTyFp86tJFSkyMzFxJSVJmZtPGkjeYQtZgEnmDKWQNJpE356JZC8coKipSUVGR1WUgTpA3mELW4lN6upSfH5m58vOD8zUFeYMpZA0mkTeYQtZgEnlzLpq1AAAANjRhgr3mAQAAABB97FkLR6qsDN5J+9Ch4L5/Xbo0/aoiAADsYORIacAAqbCw5XNkZ0sjRkSsJAAAAABRxpW1cJSSEunmm6WMjOA/cIcMCf6ZkSGNGSO9+64UCFhdJQAA5+ZySYsXSykpLTs+JUVatCg4DwAAAIDYQLMWjrB5s7R0qfTKK9JLL0l1dQ1fr6uTVqyQrr5auvji4HgAAOwuJ0datar5DduUlOBxOTnRqQsAAABAdNCsRcxbs0YaPlwqL2/a+MLC4Pg1a6JbF+yrslLasUPauDH4Z2Wl1RUBwJnl5Unr1wc/KdIU2dnB8Xl50a0LAAAAQOS5AgE+FB6PcnNz5fP55PF45PV6rS6nxTZvDjZeq6ubf2xKSvAfs1x1FB8CAWntWmn+fOnllxtefZ2YGLxb+oQJwT0i+cgwADsKBKR164Lr2KpVDdexpKRv1rERI1jHAAAAgFhFszZOOaFZGwgEtzQI98YrW7fyj1qn27xZuv32pmVlwIDgHpE08QHYWWVlcJ/2qiopLU3KzORGmgAAAIATJFldANBSa9c2bL717OmXJO3e7W7yHNu3B69SGjkykpXBTtasCV5t1tSrr09sk7Fq1dk/Quz3+yVJbrc77BqBsyFraEx6enSas+QNppA1mETeYApZg0nkzblo1iJmLVjQ8HleXrEk6emn3c2eh2atM23e3LxG7QnV1cHjzrZNRnFxMG/8xYhoI2swibzBFLIGk8gbTCFrMIm8ORc3GENMqqwMXvkYCStXcoMpJwoEglsftGQ/Yyl43B13BOcBAAAAAAAwgWYtYtK+fQ1vrBKOurrgvn9wllO3yWiJE9tkAAAAAAAAmECzFjHp0KHIzldVFdn5YL1Tt8mweh4AAAAAAIBzoVmLmJSaGtn50tIiOx+sxTYZAAAAAAAgFnGDMcSkLl2kxMSGWyFUVCS3aK6kJCkzM0KFwRaisU3GqXddT05uWd6A5iJrMIm8wRSyBpPIG0whazCJvDmXKxDg9jnxKDc3Vz6fTx6PR16v1+pyWmTMGGnFisjMs2xZ+PPAPjZulIYMidx8GzZIl10WufkAAAAAAAAawzYIiFkTJthrHtgH22QAAAAAAIBYRLMWMWvkSGnAgG+e5+b6lJvra9Yc2dnSiBGRrQvWO7FNRiScaZsMn88nn695eQNagqzBJPIGU8gaTCJvMIWswSTy5lw0axGzXC5p8WIpJSX4/NJLS3XppaVNPj4lRVq0KDgPnCU9XcrPj8xc+fmn71crSaWlpSotbXregJYiazCJvMEUsgaTyBtMIWswibw5F81axLScHGnVqm8atk2VkhI8LicnOnXBemyTAQAAAAAAYg3NWsS8vDxp/XopI6Np47Ozg+Pz8qJbF6x16jYZLcE2GQAAAAAAwKQkqwsAIiEnJ7hH6f790oEDwatm6+q+eT0pKfhx9gkTgs03tj5wvhPbZAwfLlVXN/94tskAAAAAAACm0ayFo3TuLC1fLlVWSiUlUlWVlJYWvEFUY/uOwtlObJORn9+8hi3bZAAAAAAAACvQrIVjuN3u0OP0dJqzCDqxTcbtt0uFhecen50dvKL2XI3ak/MGRBNZg0nkDaaQNZhE3mAKWYNJ5M25XIFAIGB1ETAvNzdXPp9PHo9HXq/X6nKAqAsEpHXrpPnz2SYDAAAAAADYE1fWAogLLlfwpmMjR7JNBgAAAAAAsCeatXCM4uJiSVJWVpbFlcDuIrFNBnmDKWQNJpE3mELWYBJ5gylkDSaRN+dKsLoAIFL8fr/8fr/VZSBOkDeYQtZgEnmDKWQNJpE3mELWYBJ5cy6urAUAADCsslLat086dEhKTZW6dGE7FgAAAABcWQsAAGBEICC9+650881SRoY0YIA0ZEjwz4wMacyY4Ovc+hUAAACIXzRrAQAAomzzZunii6Wrr5Zeekmqq2v4el2dtGJF8PWLLw6OBwAAABB/aNYCAABE0Zo10vDhUmFh08YXFgbHr1kT3bpiQWWltGOHtHFj8M/KSqsrAgAAAKKLPWvhGB07drS6BMQR8gZTyFps27xZys+Xqqubd1x1dfC49eulnJzo1NYYO+QtEJDWrpXmz5defrnhVciJicH/LxMmSCNHSi6XRUUibHbIGuIHeYMpZA0mkTfncgUC7IwWj3Jzc+Xz+eTxeOT1eq0uBwAAxwkEglsaNPWK2sZkZ0tbt8ZPU3LzZun225v2/2zAAGnxYrPNbAAAACDa2AYBAAAgCtauDa9RK0nbt0vr1kWkHNtjuwgAAACAZi0cpKioSEVFRVaXgThB3mAKWYtdCxbYa56msCpv4W4XwQ3ZYg9rG0wibzCFrMEk8uZc7FkLx6itrbW6BMQR8gZTyFpsqqyUVq2KzFwrVwbnS0+PzHxnY0XeAoHg1gfNbdSeUF0t3XFHfG0X4QSsbTCJvMEUsgaTyJtzcWUtAABAhO3b1/DGWOGoq5NKSiIzlx2xXQQAAADwDZq1AAAAEXboUGTnq6qK7Hx2EovbRQAAAADRQrMWAAAgwlJTIztfWlpk57OLaGwXAQAAAMQymrUAAAAR1qWLlJgYmbmSkqTMzMjMZTdsFwEAAAA0xA3G4BhZWVlWl4A4Qt5gClmLTenpUn6+tGJF+HPl55u5uZhkPm9sFxG/WNtgEnmDKWQNJpE356JZC8dwu91Wl4A4Qt5gClmLXRMmRKZZO2FC+HM0lem8sV1E/GJtg0nkDaaQNZhE3pyLbRAAAACiYORIacCA8ObIzpZGjIhIObbEdhEAAABAQzRr4RgFBQUqKCiwugzECfIGU8ha7HK5pMWLpZSUlh2fkiItWhScxxTTeTuxXUQkmNwuAuFjbYNJ5A2mkDWYRN6ci2YtAABAlOTkSKtWNb9hm5ISPC4nJzp12UmktnkwuV0EAAAAEC00awEAAKIoL09av77pWyJkZwfH5+VFty67YLsIAAAA4BvcYKwRe/fu1fr16/Wvf/1Ln3zyifbv36/q6mqlpqaqU6dOysnJUX5+voYOHRq1GgKBgN58802tXLlShYWFKi0tVZs2bdSlSxfl5eVp7NixymRjNgAAYkJOjrRtm7RunTR/fvCq2bq6b15PSgp+jH/ChGDT0eTWB1Y7sV3E8OFSdXXzj7diuwgAAAAgWmjWnmT79u2aPn26tmzZ0ujrfr9ffr9fn3zyiV588UUNHTpUTz75ZMSbpj6fT5MmTdL777/f4Ou1tbUqLy/X1q1btXDhQs2cOVNjx46N6LkBAEB0uFzBq0hHjpQqK6WSEqmqSkpLC94YK573Wz2xXUR+fvMatvG0XQQAAADiA83ak3z++eenNWp79uypiy66SBdccIEqKyu1adMm/fvf/5Ykffjhh7rhhhu0cuVKZWVlRaSGqqoq3Xbbbdq5c2foa4MGDVLfvn1VVVWl999/XwcPHlR1dbWmTJmihIQEjRkzJiLnBgAAZqSnx3dztjEntou4/XapsPDc47Ozg1fU0qgFAACAk7gCgUDA6iLsYvXq1ZowYYK6d++uH/7wh7rpppvUqVOnBmPq6+u1bNkyzZgxQ4cPH5Yk5eTk6JVXXpErAp+/mzRpkl566SVJktvt1tNPP61hw4aFXq+pqdF9992nlStXSpJatWqld955Rz169GjWeXJzc+Xz+eTxeOT1esOu2w5qa2slScnJyRZXgnhA3mAKWYNJdshbIMB2EfHADllD/CBvMIWswSTy5lw0a0/y4Ycf6ssvv9TNN9+sxMTEs45944039JOf/CT0/MUXX9TIkSPDOv/OnTuVl5en+vr6s85ZX1+v/Px8bdq0SZJ04403av78+c06lxObtQAAwFnYLgIAAADxJsHqAuxk6NChGjt27DkbtZJ03XXXadCgQaHn//jHP8I+/+LFi0ON2uHDh5+x+ZuQkKAZM2aEnr/66qsqLy8P+/yxrra2NvSbJSDayBtMIWswyW55S0+X+veXLrss+CeNWuewW9bgbOQNppA1mETenItmbRguvfTS0OO9e/eGNVcgENBbb70Ven6uG4cNHjxY3bt3lyTV1dU1ODZeFRUVqaioyOoyECfIG0whazCJvMEUsgaTyBtMIWswibw5F83aMJy8R23dyRuqtcDu3btDNy6Tglf5nst3vvOd0OP3338/rPMDAAAAAAAAsBbN2jDs3Lkz9Lhz585hzbVr167Q4w4dOqhjx47nPCY7Ozv0+LPPPgvr/AAAAAAAAACslWR1AbGqpKSkwdWsV155ZVjzff7556HHmZmZTTrm5HEnN3ubo76+Xvv37z/rmHAb0QAAAAAAAADOjWZtCz388MOhrQ8yMzOVl5cX1nwVFRWhx+3bt2/SMR06dAg9Pnz4sI4cOaLzzz+/WectKyvT4MGDzzrm9ddfP+1rAwcOlCT5/X4VFxef9npycrL69esnSfL5fCotLT1tjNvtVlZWliSpuLhYfr//tDEdO3aUx+ORFNyPpbHNs7OysuR2uyVJBw4cUEFBwWlj+vXrp+TkZNXW1p5xTxe7vqfG3g/vyfr3dODAAaWmpoaeO+E9Sc77PjnhPR04cOC02mP9PTnx++SU93SCk96TE79PTnhPJ69tTnlPJ+M92es9VVVV6ejRo6fVFMvvyYnfJye8pwMHDqhVq1ah5054T5Lzvk9OeU+n/jvBCe/pVLHynk58PVLYBqEFli1b1qCBef/99ze7SXqq6urq0OPk5OQmHXPquJPnAAAAAAAAABBbXIFAIGB1EbGkoKBAN910U6hTf+ONN2r+/Plhzzt16lQtWbJEkvSDH/xATz311DmPKS4u1hVXXBF6/tFHHzV5y4Lc3Fz5fD516NBBr7322lnHsg0CAAAAAAAAEH1sg9AMX375pe68885Qo7Z///567LHHIjL3yVfmHjt2rEnHHD16tMHzpl6Re7KEhASasQAAAAAAAIANsA1CE5WWlmrcuHEqKyuTFNzv4sUXX1RaWlpE5k9JSQk9bmx/jcacOu7kOeKR3+9vdP8SIBrIG0whazCJvMEUsgaTyBtMIWswibw5F1fWNkF5ebnGjRunL774QlJw8+IlS5Y0uBFHuC644ILQ46+++qpJx5xoHEtS69atw943N9ad2Nz5xKbRQDSRN5hC1mASeYMpZA0mkTeYQtZgEnlzLq6sPYeqqirddtttoTvBZWRkaMmSJerWrVtEz9OrV6/Q45KSkiYdc/K43r17R7QeAAAAAAAAAGbRrD2LmpoajR8/Xlu3bpUkpaen68UXX1Tfvn0jfq6Tm61lZWUNrpo9k+3bt4ce9+nTJ+I1AQAAAAAAADCHZu0Z1NbW6s4779RHH30kKbjNwOLFi3XJJZdE5Xw9e/ZUp06dQs8//PDDcx5z8pjvfOc7UakLAAAAAAAAgBk0axtx7Ngx3X333Xr//fclSeeff76effZZDR48OGrndLlcuvbaa0PPly1bdtbxmzZt0u7duyVJiYmJysvLi1ptAAAAAAAAAKKPZu0p6urqdM899+idd96RJCUlJWnhwoUaPnx41M89fvx4JSQEvyVr167V+vXrGx1XX1+vWbNmhZ6PHj1a7dq1i3p9dpecnKzk5GSry0CcIG8whazBJPIGU8gaTCJvMIWswSTy5lyuQCAQsLoIuwgEAvrVr36l5cuXS5ISEhI0b948ff/73w9r3szMzNDjKVOmaOrUqWccO2nSJL300kuSpAsuuEB//vOfdcUVV4Rer6mp0fTp00NjWrVqpXfeeUc9evRoVk25ubny+XzyeDzyer3NOhYAAAAAAABA5CVZXYCdLFq0KNSolaSsrCxt3LhRGzdubNLxJ1/t2lKzZs3S9u3bVVRUpIqKCo0ZM0aDBg1S3759VVVVpQ8++EB+vz80/ve//32zG7UAAAAAAAAA7Idm7UkOHDjQ4PmePXu0Z8+eJh8fiWZtWlqa/vrXv2rSpEmhPXO3bNmiLVu2NBiXkpKimTNn6pZbbgn7nE7h8/kkSR6Px+JKEA/IG0whazCJvMEUsgaTyBtMIWswibw5F81aG/J4PFq6dKneeOMNrVq1Stu2bVNZWZnatGmjzMxM5eXlady4cQ22V4BUWloqiYUKZpA3mELWYBJ5gylkDSaRN5hC1mASeXMumrUnmTp16ln3k22pkpKSZh/jcrk0atQojRo1KuL1AAAAAAAAALCfBKsLAAAAAAAAAADQrAUAAAAAAAAAW6BZCwAAAAAAAAA2wJ61cAy32211CYgj5A2mkDWYRN5gClmDSeQNppA1mETenMsVCAQCVhcB83Jzc+Xz+eTxeOT1eq0uB4ioykpp3z7p0CEpNVXq0kVKT7e6KgAAAAAAgLNjGwQAjhAISO++K918s5SRIQ0YIA0ZEvwzI0MaMyb4Or+eAgAAAAAAdkWzFo5RXFys4uJiq8uABTZvli6+WLr6aumll6S6uoav19VJK1YEX7/44uD4cJE3mELWYBJ5gylkDSaRN5hC1mASeXMumrVwDL/fL7/fb3UZMGzNGmn4cKmwsGnjCwuD49esCe+85A2mkDWYRN5gClmDSeQNppA1mETenItmLYCYtXmzlJ8vVVc377jq6uBxkbjCFgAAAAAAIFJo1gKISYGAdPvtzW/UnlBdLd1xB3vYAgAAAAAA+6BZCyAmrV3b9K0PzmT7dmnduoiUAwAAAAAAEDaatQBi0oIF9poHAAAAAAAgXElWFwBESseOHa0uAYZUVkqrVkVmrpUrg/OlpzfvOPIGU8gaTCJvMIWswSTyBlPIGkwib85FsxaO4fF4rC4BhuzbJ9XVRWauujqppKT5zVryBlPIGkwibzCFrMEk8gZTyBpMIm/OxTYIAGLOoUORna+qKrLzAQAAAAAAtATNWjhGUVGRioqKrC4DBqSmRna+tLTmH0PeYApZg0nkDaaQNZhE3mAKWYNJ5M252AYBjlFbW2t1CTCkSxcpMTEyWyEkJUmZmc0/jrzBFLIGk8gbTCFrMIm8wRSyBpPIm3NxZS2AmJOeLuXnR2au/Pzm71cLAAAAAAAQDTRrAcSkCRPsNQ8AAAAAAEC4aNYCiEkjR0oDBoQ3R3a2NGJERMoBAAAAAAAIG81aADHJ5ZIWL5ZSUlp2fEqKtGhRcB4AAAAAAAA74AZjcIysrCyrS4BhOTnSqlXBfWerq5t+XEpK8LicnJafm7zBFLIGk8gbTCFrMIm8wRSyBpPIm3O5AoFAwOoiYF5ubq58Pp88Ho+8Xq/V5QBh2bxZuv12qbDw3GOzs4NX1IbTqAUAAAAAAIgGtkEAEPNycqRt26R335VuvllKTGz4elKSNGZM8PWtW2nUAgAAAAAAe2IbBDhGQUGBJGngwIEWVwIruFzBm46NHClVVkolJVJVlZSWJmVmSunpkT0feYMpZA0mkTeYQtZgEnmDKWQNJpE356JZC8Bx0tMj35wFAAAAAACINrZBAAAAAAAAAAAboFkLAAAAAAAAADZAsxYAAAAAAAAAbIBmLQAAAAAAAADYgCsQCASsLgLm5ebmyufzyePxyOv1Wl1ORNTW1kqSkpOTLa4E8YC8wRSyBpPIG0whazCJvMEUsgaTyJtzJVldABApLFAwibzBFLIGk8gbTCFrMIm8wRSyBpPIm3OxDQIco7a2NvSbJSDayBtMIWswibzBFLIGk8gbTCFrMIm8ORfNWjhGUVGRioqKrC4DcYK8wRSyBpPIG0whazCJvMEUsgaTyJtz0awFAAAAAAAAABugWQsAAAAAAAAANkCzFgAAAAAAAABsgGYtAAAAAAAAANgAzVoAAAAAAAAAsAFXIBAIWF0EzMvNzZXP55PH45HX67W6HAAAAAAAACDucWUtAAAAAAAAANgAzVo4ht/vl9/vt7oMxAnyBlPIGkwibzCFrMEk8gZTyBpMIm/OlWR1AUCkFBcXS5Lcbre1hSAukDeYQtZgEnmDKWQNJpE3mELWYBJ5cy6urAUAAAAAAAAAG6BZCwAAAAAAAAA2QLMWAAAAAAAAAGyAZi0AAAAAAAAA2AA3GINjJCcnW10C4gh5gylkDSaRN5hC1mASeYMpZA0mkTfncgUCgYDVRcC83Nxc+Xw+eTweeb1eq8sBAAAAAAAA4h7bIAAAAAAAAACADdCshWP4fD75fD6ry0CcIG8whazBJPIGU8gaTCJvMIWswSTy5lw0a+EYpaWlKi0ttboMxAnyBlPIGkwibzCFrMEk8gZTyBpMIm/ORbMWAAAAAAAAAGyAZi0AAAAAAAAA2ADNWgAAAAAAAACwAZq1AAAAAAAAAGADSVYXAESK2+22ugTEEfIGU8gaTCJvMIWswSTyBlPIGkwib87lCgQCAauLgHm5ubny+XzyeDzyer1WlwMAAAAAAADEPbZBAAAAAAAAAAAboFkLxyguLlZxcbHVZSBOkDeYQtZgEnmDKWQNJpE3mELWYBJ5cy6atXAMv98vv99vdRmIE+QNppA1mETeYApZg0nkDaaQNZhE3pyLZi0AAAAAAAAA2ADNWgAAAAAAAACwAZq1AAAAAAAAAGADNGsBAAAAAAAAwAaSrC4AiJSOHTtaXQLiCHmDKWQNJpE3mELWYBJ5gylkDSaRN+dyBQKBgNVFwLzc3Fz5fD55PB55vV6rywEAAAAAAADiHtsgAAAAAAAAAIAN0KyFYxQVFamoqMjqMhAnyBtMIWswibzBFLIGk8gbTCFrMIm8ORd71sIxamtrrS4BcYS8wRSyBpPIG0whazCJvMEUsgaTyJtzcWUtAAAAAAAAANgAzVoAAAAAAAAAsAGatQAAAAAAAABgAzRrAQAAAAAAAMAGuMEYHCMrK8vqEhBHyBtMIWswibzBFLIGk8gbTCFrMIm8ORfNWjiG2+22ugTEEfIGU8gaTCJvMIWswSTyBlPIGkwib87FNggAAAAAAAAAYAM0a+EYBQUFKigosLoMxAnyBlPIGkwibzCFrMEk8gZTyBpMIm/ORbMWAAAAAAAAAGyAZi0AAAAAAAAA2ADNWgAAAAAAAACwAZq1AAAAAAAAAGADNGsBAAAAAAAAwAZcgUAgYHURMC83N1c+n08ej0der9fqciKitrZWkpScnGxxJYgH5A2mkDWYRN5gClmDSeQNppA1mETenCvJ6gKASGGBgknkDaaQNZhE3mAKWYNJ5A2mkDWYRN6ci20Q4Bi1tbWh3ywB0UbeYApZg0nkDaaQNZhE3mAKWYNJ5M25aNbCMYqKilRUVGR1GYgT5A2mkDWYRN5gClmDSeQNppA1mETenItmLQAAAAAAAADYAM1aAAAAAAAAALABmrUAAAAAAAAAYAM0awEAAAAAAADABmjWAgAAAAAAAIANuAKBQMDqImBebm6ufD6fPB6PvF6v1eUAAAAAAAAAcS/J6gIAALGjslLat086dEhKTZW6dJHS062uCgAAAAAAZ2AbBDiG3++X3++3ugzEiXjKWyAgvfuudPPNUkaGNGCANGRI8M+MDGnMmODrfE4jOuIpa7AeeYMpZA0mkTeYQtZgEnlzLq6shWMUFxdLktxut7WFIC7ES942b5Zuv10qLGz89bo6acWK4H8DBkiLF0s5OWZrdLp4yRrsgbzBFLIGk8gbTCFrMIm8ORdX1gIAGrVmjTR8+JkbtacqLAyOX7MmunUBAAAAAOBUNGsBAKfZvFnKz5eqq5t3XHV18LjNm6NTFwAAAAAATkazFgDQQCAQ3PqguY3aE6qrpTvuYA9bAAAAAACai2YtAKCBtWubvvXBmWzfLq1bF5FyAAAAAACIG9xgDI6RnJxsdQmII07O24IFkZtn5MjIzBXPnJw12A95gylkDSaRN5hC1mASeXMuVyDAB1XjUW5urnw+nzwej7xer9XlALCJykopI0Oqqwt/rsREqbxcSk8Pfy4AAAAAAOIB2yAAAEL27YtMo1YKzlNSEpm5AAAAAACIBzRr4Rg+n08+n8/qMhAnnJq3Q4ciO19VVWTni0dOzRrsibzBFLIGk8gbTCFrMIm8ORfNWjhGaWmpSktLrS4DccKpeUtNjex8aWmRnS8eOTVrsCfyBlPIGkwibzCFrMEk8uZcNGsBACFdugT3mo2EpCQpMzMycwEAAAAAEA9o1gIAQtLTpfz8yMyVn8/NxQAAAAAAaA6atQCABiZMsNc8AAAAAADEC5q1AIAGRo6UBgwIb47sbGnEiIiUAwAAAABA3EiyugAgUtxut9UlII44OW8ul7R4sTR8uFRd3fzjU1KkRYuC8yB8Ts4a7Ie8wRSyBpPIG0whazCJvDmXKxAIBKwuAubl5ubK5/PJ4/HI6/VaXQ4AG1qzJrjvbHMatikp0qpVUl5e9OoCAAAAAMCp2AYBANCovDxp/fqmb4mQnR0cT6MWAAAAAICWYRuERtTV1amoqEgFBQWh/z755BMdO3ZMkjR06FCtWLEi4uddunSppkyZ0qxjxo0bp9mzZ0e8llhUXFwsScrKyrK4EsSDeMlbTo60bZu0bp00f37wqtm6um9eT0oKXn07YUJwj1q2Poi8eMka7IG8wRSyBpPIG0whazCJvDkXzdpTvPnmm5o4caIOHz5sdSloJr/fL4mFCmbEU95cruBNx0aOlCorpZISqapKSkuTMjOl9HSrK3S2eMoarEfeYApZg0nkDaaQNZhE3pyLZu0pDh48aItGbe/evTVs2LBzjrv00ksNVAMAQenpNGcBAAAAAIgWmrVn0L59ew0cOFDf/va3NXDgQK1du1bPPPOMsfMPGjRIs2bNMnY+AAAAAAAAANaiWXuKq666Shs3blRmZmaDr2/ZssWiigAAAAAAAADEA5q1p+jQoYPVJQAAAAAAAACIQzRr4RgdO3a0ugTEEfIGU8gaTCJvMIWswSTyBlPIGkwib85FsxaO4fF4rC4BcYS8wRSyBpPIG0whazCJvMEUsgaTyJtz0ay1qcrKSr366qv69NNPVVlZqbS0NHXs2FG5ubnq37+/XC6X1SUCAAAAAAAAiCCatTb197//XX//+98bfa1Hjx665557dOutt4bdtK2vr9f+/fvPOqZz585hncOUoqIiSVK/fv0srgTxgLzBFLIGk8gbTCFrMIm8wRSyBpPIm3PRrI1Be/bs0bRp0/Tmm2/qT3/6k9q0adPiucrKyjR48OCzjnn99ddP+9rAgQMlSX6/X8XFxae9npycHFowfD6fSktLTxvjdruVlZUlSSouLpbf7z9tTMeOHUOX9hcVFam2tva0MVlZWXK73aqtrdWBAwcaHdOvXz8lJyertrY2tKDFwnuSpIKCgkbr5T1Z+54OHDig1NTU0HMnvCfJed8nJ7ynkpISSWrw3mL9PTnx++SU93TifTjpPTnx++SE93TgwAFJwbXNKe/pZLwne72nr776SkePHj2t5lh+T078PjnhPR04cECtWrUKjXHCe5Kc931yyns6+e9Sp7ynU8XKezrx9UihWWszmZmZGj16tIYNG6aLLrpI7dq1C139+t577+nZZ5/Vrl27JElvv/227rnnHj3zzDNKSEiwuHIAAAAAAAAA4XAFAoGA1UXEgjlz5uiJJ56QJA0dOlQrVqyI+DkOHjyotLS0szZejx49qunTp2vp0qWhrz311FP6wQ9+0Kxz5ebmyufzqUOHDnrttdfOOjZWtkE48duRSP9GA2gMeYMpZA0mkTeYQtZgEnmDKWQNJpE35+LKWhtp27btOce0atVKs2fP1hdffKENGzZIkhYsWNDsZu0JCQkJMdOMBQAAAAAAAJyMz87HoISEBP3qV78KPd+5c+c5bxIGAAAAAAAAwN64sjZGXX755TrvvPN07NgxSdKuXbvi/grZE5tOAyaQN5hC1mASeYMpZA0mkTeYQtZgEnlzLpq1Meq8885TRkZG6G555eXlFldkvRN39gNMIG8whazBJPIGU8gaTCJvMIWswSTy5lxsgxDDampqQo/btGljYSUAAAAAAAAAwkWzNkYVFxerqqoq9Lxjx44WVmMPBQUFobshAtFG3mAKWYNJ5A2mkDWYRN5gClmDSeTNuWjWxqglS5aEHqenp2vAgAEWVgMAAAAAAAAgXDRrbaK6urrJYz/66CP9+c9/Dj2/4YYblJTE9sMAAAAAAABALKNZG2V79+5VZmZm6L+lS5c2Ou5vf/ubrr/+ei1fvlyVlZWNjqmtrdUzzzyjW2+9VbW1tZKktm3basqUKVGrHwAAAAAAAIAZXI7ZiPHjx8vn8zX42ldffRV6XFBQoLy8vNOO+9///V95PJ4Wn/fjjz/W5MmTlZSUpN69e6tXr15yu92qq6uTz+eT1+ttsE9tcnKynn32WfarBQAAAAAAAByAZm0jPv30U+3bt++Mr9fU1GjHjh2nff3YsWMROf/x48e1c+dO7dy584xjBg0apD/+8Y/q06dPRM4Z6/bv369Ro0ZJCm4T0blzZ4srgpORN5hC1mASeYMpZA0mkTeYQtZgEnlzNpq1NnHjjTeqZ8+e8nq98nq9Ki4uVnl5uSoqKhQIBJSWlqauXbsqJydHo0eP1mWXXWZ1yQAAAAAAAAAiiGZtIzZs2BCxubp27aqSkpJzjjv//PM1ePBgDR48OGLnBgAAAAAAABA7uMEYAAAAAAAAANgAzVoAAAAAAAAAsAGatQAAAAAAAABgAzRrAQAAAAAAAMAGaNYCAAAAAAAAgA3QrAUAAAAAAAAAG3AFAoGA1UXAvKysLB0/flwJCQnq0KGD1eWErb6+XmVlZZKkDh06KCGB30MgesgbTCFrMIm8wRSyBpPIG0whazCJvNlPhw4d9MYbb0RkLpq1capr166qr6+3ugwAAAAAAAAgpnk8Hnm93ojMlRSRWRBzzj//fB05ckSJiYlq166d1eUAAAAAAAAAMSmSn1rnyloAAAAAAAAAsAE2tQAAAAAAAAAAG6BZCwAAAAAAAAA2QLMWAAAAAAAAAGyAZi0AAAAAAAAA2ADNWgAAAAAAAACwAZq1AAAAAAAAAGADNGsBAAAAAAAAwAZo1gIAAAAAAACADdCsBQAAAAAAAAAbSLK6AMSnuro6FRUVqaCgIPTfJ598omPHjkmShg4dqhUrVkT8vEuXLtWUKVOadcy4ceM0e/bsiNcCM/bu3av169frX//6lz755BPt379f1dXVSk1NVadOnZSTk6P8/HwNHTo0ajUEAgG9+eabWrlypQoLC1VaWqo2bdqoS5cuysvL09ixY5WZmRm188Mcq/L2wQcfaMyYMc06ZtiwYVq6dGlE64A55eXl+uijj7Rlyxbt3LlTxcXFKi0tVXV1tZKSkuR2u9WvXz8NHTpUN998szp16hSVOo4ePapXXnlFq1evVlFRkb7++mu1bdtWXbt21ahRo3TLLbcoIyMjKueGGVZmjZ/bcKqHH35Y//M//xN63qVLF23YsCHi52FtQzSzxtoWf+zyPWdtix00a2Hcm2++qYkTJ+rw4cNWlwIH2759u6ZPn64tW7Y0+rrf75ff79cnn3yiF198UUOHDtWTTz4Z8aapz+fTpEmT9P777zf4em1trcrLy7V161YtXLhQM2fO1NixYyN6bphjl7whfkyePFn/+Mc/Gn3t+PHj8vl88vl8Wrdunf74xz9q4sSJmjx5shISIvehql27dmnChAkqLCxs8PWysjKVlZXJ6/XqT3/6k5544gl997vfjdh5YZYdsgZI0pYtW/TMM89E/TysbTCVNcAk1rbYQrMWxh08eNAWjdrevXtr2LBh5xx36aWXGqgGkfb555+f1jjr2bOnLrroIl1wwQWqrKzUpk2b9O9//1uS9OGHH+qGG27QypUrlZWVFZEaqqqqdNttt2nnzp2hrw0aNEh9+/ZVVVWV3n//fR08eFDV1dWaMmWKEhISmn11JOzBDnk7wePx6Hvf+945x/Xu3Tui54V1MjIy1KdPH2VmZiolJUWHDx/WF198oY8//ljHjx/XkSNHNGfOHBUXF+vJJ5+MyDn379+vsWPHyufzSZJcLpcuv/xyZWVl6cCBA/rnP/+p2tpaff3117rrrrv0wgsvNOnvXNibFVk7gZ/b4tuxY8d07733qr6+PqrnYW2DqaydwNoWf6z4nrO2xR6atbBM+/btNXDgQH3729/WwIEDtXbtWqO/wRw0aJBmzZpl7HywRvfu3fXDH/5QN91002kfzayvr9eyZcs0Y8YMHT58WD6fTxMnTtQrr7wil8sV9rl/85vfhBq1brdbTz/9dIO/9GpqanTfffdp5cqVkqRf//rXuvTSS9WjR4+wzw1rWJm3E3r06MHaFgeuuOIK5eXladiwYWdcM7766is9/PDDevnllyVJK1asUF5enkaPHh32+SdOnBj6gb9Lly569tlnNWDAgNDr5eXl+sUvfqH33ntPx44d089+9jN98MEHatu2bdjnhllWZ+0Efm6Lb/Pnz9cnn3wiScrPz9eqVauich7WNpjK2gmsbfHHiu85a1vs4fNJMO6qq67Sxo0b9fHHH2vRokX61a9+pauvvpqFABHVoUMHPfHEE1q/fr3uueeeRvfQS0hI0K233qr/9//+X+hrmzdv1rp168I+/86dOxv8cDd//vzTfjvZpk0bPfnkk6Hfmh49epS9qGKU1XlD/Pn5z3+u8ePHn/WXO+3bt9e8efP0ne98J/S1F154Iexz/+Mf/wjt29eqVSs9//zzDX7gl4JXYD733HOhK8f9fr8WLFgQ9rlhnpVZA6TgR3efeuopSdJNN92kK6+8MirnYW2DqawBJrG2xSaatTCuQ4cO7NOIqBs6dKjGjh2rxMTEc4697rrrNGjQoNDzM+3N1xyLFy8OfXxq+PDhGjlyZKPjEhISNGPGjNDzV199VeXl5WGfH2ZZnTfgTFwuV4P9sLdv3x72nM8//3zo8ZgxY9S/f/9Gx7Vp00bTpk0LPX/hhRd0/PjxsM8Pe4pG1oBAIKBp06bpyJEjcrvd+u1vfxu1c7G2xTeTWQNMYm2LTTRrAUAN9wTau3dvWHMFAgG99dZboefnunHY4MGD1b17d0lSXV1dg2PhTJHMG3Au7dq1Cz2urq4Oa67q6uoGN0y85ZZbzjp+1KhRSklJkRS8SuNf//pXWOeHvUUya4AkLVq0SB999JEkacaMGbrwwgujch7WNpjKGmASa1vsolkLAFKDPUPr6urCmmv37t2hG0lJwasuz+Xkj46e/BcqnCmSeQPO5dNPPw097tKlS1hzbdq0SUeOHJEUvALj29/+9lnHJycnKzc3N/Sc9c3ZIpk1oKSkRI8++qgkaciQIbr11lujdi7WtvhmMmuASaxtsYsbjCFuVVZW6tVXX9Wnn36qyspKpaWlqWPHjsrNzVX//v0jesMf2N+JG4FJUufOncOaa9euXaHHHTp0UMeOHc95THZ2dujxZ599Ftb5YX+RzNupamtr9dZbb2nHjh3y+/1q06aN2rdvr0GDBik7O1tJSfzVH098Pp+efvrp0PPrr78+rPlOXp8uuuiiJuXp4osv1vr16yU1XB/hLJHO2qn4uS3+PPDAAzp06JBatWql3//+91H9HrO2xTeTWTsVa1v8Mfk9Z22LXfyLDXHr73//u/7+9783+lqPHj10zz336NZbb+UvyDhQUlLS4LeG4d5M4PPPPw89bur+zCeP4y9FZ4t03k61ZcsW/fjHP270NY/Ho7vvvlt33XWXzjvvvIieF/Zx+PBh7d27V++8847+9Kc/6euvv5Yk9enTRxMnTgxr7pPXt6ZeOXnyLyRY35wlmlk7FT+3xZfVq1fr7bffliRNmDBBffr0ier5WNvil+msnYq1Lf6Y/J6ztsUumrVAI/bs2aNp06bpzTff1J/+9Ce1adPG6pIQRQ8//HDoo+iZmZnKy8sLa76KiorQ4/bt2zfpmA4dOoQeHz58WEeOHNH5558fVh2wp0jnrTl8Pp9mzpyp1157Tc8++2yT8wl727hxo/Lz88865uqrr9a8efOUmpoa1rnCXd/8fn9Y54e1TGatOfi5zVnKy8v14IMPSpJ69uypSZMmRf2crG3xyYqsNQdrW/yJ9PectS120axF3MnMzNTo0aM1bNgwXXTRRWrXrp3q6+u1f/9+vffee3r22WdDv0F6++23dc899+iZZ55RQgJbPDvRsmXL9Prrr4ee33///WE3SU++qUpycnKTjjl1XHV1Nc1aB4pG3k5o166dRo8ereHDh+tb3/qW2rdvr4SEBJWWlmrDhg16/vnn9fHHH0uSNm/erDvvvFMrVqxQ69atI3J+2JPb7dYjjzyi73//+xGZL9z1jZtOOVeks3YCP7fFn4cfflgHDhyQJD322GNGfh5ibYtPVmTtBNa2+GPF95y1LXbRrEVc+d73vqcxY8Y0uuD16tVLvXr10rhx4zR9+nQtXbpUkvTWW29p1apV+sEPfmC6XERZQUGB7r///tDzG2+88ZxXDDXFiU3cJTX5o+atWrVq8Ly2tjbsOmAv0cqbJA0cOFCbNm06LUeS1K1bN3Xr1k0333yzZs+erblz50qSPv74Yz399NOaPHlyRGqAdTp27Kg777xTkhQIBHTo0CHt3r1b27Ztk9/v14QJE/TCCy/oscceU69evcI6V7jrG2tbbDOZNYmf2+LRunXr9NJLL0mSxowZ0+AGrNHE2hZ/rMqaxNoWj6z6nrO2xS5+LYO40rZt23P+ZqpVq1aaPXu2hgwZEvraggULol0aDPvyyy915513hv4C6t+/vx577LGIzH3yb+WPHTvWpGOOHj3a4HlTf/OJ2BDNvElSSkpKo43ak7lcLt17770NGsT/8z//o+PHj0esDlgjKytLs2bN0qxZs/TII4/oqaee0t/+9jdt2LBBt9xyiyTpgw8+0A033KAdO3aEda5w1zfWtthmMmsSP7fFm5qaGt13332SpAsuuEAPPfSQsXOztsUXK7MmsbbFI6u+56xtsYtmLdCIhIQE/epXvwo937lzp/bv329hRYik0tJSjRs3TmVlZZKC//h88cUXlZaWFpH5U1JSQo+b+tvIU8edPAdiW7Tz1lzTpk0LPfb7/dq8ebMldSD6PB6P/vjHP+quu+6SpNCVjyf2TG6JcNc31jZnikbWmoOf25zhscce0969eyVJDz30kDIyMoydm7UtvliZteZgbYs/kf6es7bFLpq1wBlcfvnlDT4qwJ0QnaG8vFzjxo3TF198ISn4kc4lS5aoY8eOETvHBRdcEHr81VdfNemYE408SWrdujX71TqEibw1V/fu3dW1a9fQ888++8yyWmDG/fffH/rlwGeffaZ33nmnxXOFu7653e4Wnxv2F8msNRc/t8W2bdu26bnnnpMkXXHFFaErtU1hbYsfVmetuVjb4k8kv+esbbGLPWuBMzjvvPOUkZGh0tJSScGmC2JbVVWVbrvtNhUVFUmSMjIytGTJEnXr1i2i5zl5n76SkpImHXPyuN69e0e0HljDVN5aokOHDqErSljbnK9169a69NJL9e6770qSNm3apLy8vBbNdfL6tm/fviYdc/IVIaxvzhbJrDUXP7fFth07dqi+vl5ScM0YPXr0Gcee/L0tKytrMHby5Mm65pprmn1+1rb4YXXWmou1Lf5E8nvO2ha7aNYCZ1FTUxN63KZNGwsrQbhqamo0fvx4bd26VZKUnp6uF198UX379o34uU7+S62srExlZWXq0KHDWY/Zvn176HGfPn0iXhPMMpm3lmBtiz9t27YNPa6oqGjxPCevTzt37tTx48eVlHT2Hye3bdsWeswP/c4Xqay1BGubM3zxxRehT6Scy9GjR7Vly5bQ8wMHDrTonKxt8cmKrLUEa1v8idT3nLUtdrENAnAGxcXFqqqqCj238mPLCE9tba3uvPNOffTRR5KCV/4sXrxYl1xySVTO17NnT3Xq1Cn0/MMPPzznMSePMXk3WkSe6bw11+HDh7V79+7Qc9a2+HDi6gwpvI+0XXrppaFtWmpqalRQUHDW8UeOHGmwLzLrm/NFKmvNxc9tCAdrG+yKtS3+RPJ7ztoWu2jWAmewZMmS0OP09HQNGDDAwmrQUseOHdPdd9+t999/X1LwjpjPPvusBg8eHLVzulwuXXvttaHny5YtO+v4TZs2hZpniYmJxj4yisizIm/NtWrVKh05ckRSMKuXX365xRUh2srLyxv84B3OVRIpKSkNfnA/1/r2xhtv6NChQ5KCjTvy5myRzFpz8XNbbBs7dqxKSkqa9N8TTzwROq5Lly4NXhs7dmyLzs/aFj+szlpzsbbFn0h+z1nbYhfNWsSN6urqJo/96KOP9Oc//zn0/IYbbjjnxwVgP3V1dbrnnntCNzhJSkrSwoULNXz48Kife/z48UpICC6xa9eu1fr16xsdV19fr1mzZoWejx49Wu3atYt6fYg8q/J2+PDh0N5r57J792498sgjoecjRozQhRdeGK3SECXN+Wh5fX29ZsyYEWrQn3/++WHvsXfHHXeEHi9fvjy0L/OpDh8+rMcffzz0/Ec/+hF/l8YYK7PGz20wjbUNJrC2xR+rv+esbbGJZi1i3t69e5WZmRn6b+nSpY2O+9vf/qbrr79ey5cvV2VlZaNjamtr9cwzz+jWW29VbW2tpODea1OmTIla/YiOQCCgqVOn6rXXXpMkJSQk6KmnnmpwxWtLnJy1OXPmnHFc//79lZ+fH3o+YcIEffDBBw3G1NTUaPLkydq4caMkqVWrVrr33nvDqg/WsDJvW7Zs0VVXXaVFixbp66+/bnRMXV2dXnrpJd1www2h5kurVq30wAMPhFUfrLFixQqNGjVKy5cvb/AxuVPt2LFD48eP1+rVq0Nf+/nPf66MjIzTxjb171JJuuaaazRkyBBJwY/L3XHHHdqxY0eDMeXl5fq///f/hvYCdLvdmjBhQnPeJmzAyqzxcxsigbUNprC24Uyi8T1nbXM+2uSwxPjx4+Xz+Rp87auvvgo9LigoaPSj4P/7v/8rj8fT4vN+/PHHmjx5spKSktS7d2/16tVLbrdbdXV18vl88nq9Df4xkpycrGeffZa9gWLQokWLtHz58tDzrKwsbdy4MdQYPZeTr3ZtqVmzZmn79u0qKipSRUWFxowZo0GDBqlv376qqqrSBx98IL/fHxr/+9//Xj169Aj7vDDP6rzt2rVLDzzwgGbMmKHu3burX79+crvdSkhIUFlZmbxeb4M7ySYmJmru3Ll8lC6GFRQUNPj7rGfPnnK73XK5XKqoqNCOHTtOu2nKqFGjIvYPvXnz5mn06NEqLS3V3r17de211+ryyy9X9+7ddeDAAf3zn//U4cOHJX1zlfnJN55C7LAya/zcBtNY22ACa1v8sfp7ztoWe2jWwhKffvqp9u3bd8bXa2pqTvttjxTcDzISjh8/rp07d2rnzp1nHDNo0CD98Y9/bHAHRcSOU+/QumfPHu3Zs6fJx0eiWZuWlqa//vWvmjRpUmgP0y1btjS4k6wU3Eto5syZuuWWW8I+J6xhh7xJwY8h7969u8ENxE7Vq1cvzZkzx1b76KJ5WrVqFXrclL/PUlNTNWXKFP3kJz9RYmJiRGro3Lmzli1bpgkTJqiwsFCBQEAffvjhaTdUbNeunZ544gldeeWVETkvzLJD1pp6bn5uQySwtsEk1rb4Y9X3nLUt9tCsRdy48cYb1bNnT3m9Xnm9XhUXF6u8vFwVFRUKBAJKS0tT165dlZOTo9GjR+uyyy6zumQ4gMfj0dKlS/XGG29o1apV2rZtm8rKytSmTRtlZmYqLy9P48aNU2ZmptWlIkYNGTJEb7zxhrxerzZt2qTPP/9cFRUVqqio0NGjR5WWlqbOnTtr0KBBuvbaa3XVVVfJ5XJZXTbCcMcdd2jYsGH65z//qS1btujTTz9VSUlJ6KN1qamp6tixo771rW/pyiuv1PXXX6+UlJSI19G7d2/97W9/0+rVq7V69WoVFRXp66+/Vnp6urp166ZRo0Zp7NixjX4UHrHByqzxcxuswtqGaGJtiz92+Z6ztsUWVyAQCFhdBAAAAAAAAADEO24wBgAAAAAAAAA2QLMWAAAAAAAAAGyAZi0AAAAAAAAA2ADNWgAAAAAAAACwAZq1AAAAAAAAAGADNGsBAAAAAAAAwAZo1gIAAAAAAACADdCsBQAAAAAAAAAboFkLAAAAAAAAADZAsxYAAAAAAAAAbIBmLQAAAAAAAADYAM1aAAAAAAAAALABmrUAAAAAAAAAYAM0awEAAAAAAADABmjWAgAAAAAAAIAN0KwFAAAAAAAAABugWQsAAAAAAAAANkCzFgAAAIhzc+bMUWZmpjIzMzVnzhyrywEAAIhbNGsBAADgWA899FCoCZmTk6ODBw+26NhBgwbJ7/dHr1AAAABANGsBAADgYNOnT1fXrl0lSaWlpfrd737XpOM2bdqk5557LvT8kUcekdvtjkaJAAAAQAjNWgAAADhWmzZt9Ic//CH0fMmSJVq/fv1Zjzly5IimTp2q+vp6SdL111+v6667Lqp1AgAAAJLkCgQCAauLAAAAAKJpypQpWrp0qSSpW7du+sc//qE2bdo0OvbRRx/VvHnzJElut1tr165V+/btjdUKAACA+MWVtQAAAHC83/72t+rYsaMk6csvv9Rjjz3W6Ljt27dr4cKFoef/9V//RaMWAAAAxtCsBQAAgOO1bdtWs2bNCj1/7rnntGnTpgZjjh8/rilTpuj48eOSpKuvvlo333yz0ToBAAAQ32jWAgAAIC5cd911Gj16tCSpvr5e06ZN05EjR0Kvz5s3T4WFhZKk1NTUM15921KVlZV6+eWX9etf/1qjR49Wdna2unfvrn79+umKK67QhAkT9Morr4T2yj2ThQsXKjMzU5mZmerbt6+++OKLs473+/0aPHhw6Jjf/OY3p42ZM2dO6PU5c+acdb733ntPU6dO1Xe/+131799f3bp1U69evZSbm6v8/Hw99NBDWrNmjY4ePXrO/ycAAABoiD1rAQAAEDe+/vprjRgxQn6/X5I0adIk3Xffffr000/1H//xH6EG4yOPPKI77rgjYud9/fXXNXHixAbN4TP51re+pWeeeUbdunVr9PVAIKBx48bpn//8pyRp0KBBevnll5WUlNTo+J/+9Kd67bXXJEl9+/bV66+/rtatWzcYM2fOHD3xxBOSgvv7Tp069bR5ampqdM899+itt94653uQpMcff1w//OEPmzQWAAAAQY3/RAcAAAA40IUXXqiHH35YkydPliQtWLBAo0aN0v333x9q1F5++eW6/fbbI3rer7/+OtSo7dSpk/r27av27durdevWqq6u1q5du7Rt2zYFAgHt2LFDN910k9566y1lZGScNpfL5dLcuXN1zTXXqKKiQlu2bNGcOXN03333nTZ2yZIloUbt+eefr3nz5p3WqG2qX/7ylw0atd27d1d2drbcbreOHz+uAwcOaOfOndq7d2+L5gcAAADNWgAAAMSZMWPGaPXq1Xr33Xd1/PhxjRkzRlVVVZKk5ORkPf7443K5XBE9p8fj0f3336/rr79ePXr0aHTMl19+qfvvv19r167Vv//9bz3yyCOaPXv2GeebPXu27rrrLknBLRxGjhypIUOGhMbs3r1bDz74YOj59OnTNWDAgBbVX1hYqDfffFOSlJKSooULF+rqq69udGxxcbFefvllXXjhhS06FwAAQDxjz1oAAADEnd///vdKTU2VpFCjVpKmTZumnj17Rvx81157rSZOnHjGRq0kdevWTc8//7z69+8vSVq1alVou4bGfO9739OPfvQjScE9eH/5y1/q4MGDkqRjx45p4sSJqqmpkSSNGDFCd999d4vr37hxY+jxXXfddcZGrSRlZWXpP//zP3Xttde2+HwAAADximYtAAAA4k5mZqZ+/vOfN/jawIED9dOf/tSiioLOO+883XTTTZKk2traBk3Sxjz88MPq06ePJKmkpETTp0+XFNwvtqCgQJKUkZGhuXPnhnW18MkN7Xbt2rV4HgAAAJwd2yAAAAAg7hw9elSrV69u8LVIb31wJgcPHtTmzZtVVFSkiooK1dTUqL6+PvT6rl27Qo8LCwvPeoVq69atNW/ePP2f//N/dPToUb3yyityu9164YUXQmPmzJmjDh06hFVz586dQ49XrFih2267rcV73wIAAODMaNYCAAAg7sydO1efffZZg699/PHH+stf/qKf/exnUTnn/v379eijj+q1114L3WzsXCoqKs45Jjs7W9OnT9fvfvc7SdLixYtDr40fPz4i2xFcffXVatOmjWpqarRt2zYNHz5c48aN03e/+11lZ2crMTEx7HMAAACAZi0AAADiTGFhoRYsWBB6PmzYML333nuSpNmzZ2vUqFHq2rVro8dWVFSc8aZfJ+Tk5OgHP/hBg69t375dY8eOPesetI05dOhQk8b99Kc/1dq1a7V+/frQ1/r06aPf/va3zTrfmWRkZGj27Nn6z//8Tx07dkz79+/XnDlzNGfOHKWkpGjQoEG6/PLLlZeXp+zs7IicEwAAIB7RrAUAAEDcqKur07Rp03Ts2DFJUl5env7yl7/ouuuu044dO1RTU6P77rtPf/3rXxs9/tChQ3r++efPeo7q6uoGzdojR47o7rvvDjVq27Vrpx/96EcaNmyYunfvrgsuuEDJycmhbRiWLl2qKVOmSFKD7RHOxuVy6cILL2zwteHDh0d0q4Lvf//76tWrl+bOnau333479P+wurpa7733nt577z3Nnj1bl1xyiR5++GENGTIkYucGAACIF9xgDAAAAHFj4cKF2rp1qyQpLS1Njz76qJKSkjRnzpzQR/nXrVunZcuWReycr7/+ur788ktJksfj0Zo1a/TrX/9aV1xxhTp37qzWrVs32C+3urq62edYtWqVVq5c2eBrzz33nDZs2BBe8afIzs7WX/7yFxUUFOi5557TL37xC+Xm5uq8884Ljdm6davGjBmjV199NaLnBgAAiAdcWQsAAIC48Pnnn+uJJ54IPf/Nb36jTp06SZIuueQS3X333Vq4cKEk6Xe/+52++93vql27dg3m6Nq1q0pKSpp13hNbLEjS3XffrY4dO551/L59+5o1/759+/TAAw+Envfu3Vu7du1SfX29Jk2apDVr1ig9Pb1Zc55L27Ztde2114b2w62qqtLrr7+uOXPmqKSkRHV1dXrggQd0zTXXcCMyAACAZuDKWgAAADheIBDQtGnTVFtbK0kaOnSofvSjHzUYM23aNHXv3l1ScG/aBx98MCLnLi0tDT2+6KKLzjm+OVfD1tXV6Ze//KUqKyslSd/5znf0xhtvqE+fPpKCjdzp06c3s+LmS0tL09ixY7Vs2TKdf/75kqTy8nJ5vd6onxsAAMBJaNYCAADA8RYtWqSNGzdKkpKTk/X444832HpAklq3bq3HHnss9Hz16tV6++23wz73yec5fPjwWcdu3bpVH3/8cZPnfuqpp0Lvy+1268knn1SbNm00b948tWrVSlLwfSxfvrz5hbdA9+7d1bdv39Dzr7/+2sh5AQAAnIJmLQAAABxt3759euSRR0LPp02bph49ejQ69sorr9Stt94aen7//ffr0KFDYZ0/Kysr9Pitt94647jDhw/r17/+dZPn9Xq9mjt3buj5H/7wh9C2DtnZ2brvvvtCr82YMSO0b25LlJeXN2lcXV2dysrKQs9P3UYCAAAAZ0ezFgAAAI523333hW7adckll+inP/3pWcc/+OCD6tChgyRp//79evTRR8M6f15eXujx8uXLtXDhQtXV1TUYs2fPHo0bN07btm1TmzZtzjnnoUOHNGnSJB0/flySdOutt+r6669vMOZnP/uZhg0bFho/ceLE087bVDNnztRNN92k5cuX6+DBg42OKS8v17333hva9iEtLU2XXnppi84HAAAQr7jBGAAAABxr2bJlWrt2rSTpvPPO0+zZs5WYmHjWY9xut2bOnKmf/exnkoJbKNx4440aPHhwi2oYMWKELr/8cv3rX/9SIBDQzJkztWjRImVnZys9PV179uzRpk2bVFdXJ4/Ho5/85Cf67//+77POOWPGDH3xxReSglsPzJw587QxLpdLc+fO1TXXXCO/3x+6Enfq1KnNfg+BQEAbNmzQhg0blJiYqN69e6t3795yu906fPiwfD6fNm3apKNHj4aOefDBB7m5GAAAQDPRrAUAAIAjlZWV6b/+679Cz3/xi19owIABTTp29OjR+t73vqc333xTgUBA9957r956663QPrDNtXDhQo0fP17btm2TJH355ZenbUvQt29fPf3009qyZctZ53rllVdCe9AmJSVp/vz5Z7wat1OnTnr88cd19913S5KefPJJjRgxotlXvKampoYe19XVqaioSEVFRWcc+9BDD+m2225r1jkAAADANggAAABwqN/85jfy+/2SpN69e2vy5MnNOn7WrFlKT0+XJH322Wd66qmnWlxL+/bttXr1as2aNUuXXXaZ2rZtq1atWqlTp04aNmyY/vCHP+j1119vcHOuxpSUlGj69Omh51OmTNG3v/3tsx4zatQo/fCHP5QUbLT+8pe/VFVVVbPq/+///m+tXbtWM2fOVH5+vr71rW/J7XYrKSlJycnJ8ng8GjFihB588EG9//77NGoBAABayBUIBAJWFwEAAAAAAAAA8Y4rawEAAAAAAADABmjWAgAAAAAAAIAN0KwFAAAAAAAAABugWQsAAAAAAAAANkCzFgAAAAAAAABsgGYtAAAAAAAAANgAzVoAAAAAAAAAsAGatQAAAAAAAABgAzRrAQAAAAAAAMAGaNYCAAAAAAAAgA3QrAUAAAAAAAAAG6BZCwAAAAAAAAA2QLMWAAAAAAAAAGyAZi0AAAAAAAAA2ADNWgAAAAAAAACwAZq1AAAAAAAAAGADNGsBAAAAAAAAwAZo1gIAAAAAAACADdCsBQAAAAAAAAAboFkLAAAAAAAAADZAsxYAAAAAAAAAbIBmLQAAAAAAAADYAM1aAAAAAAAAALABmrUAAAAAAAAAYAM0awEAAAAAAADABv4/SxNX/HS6QegAAAAASUVORK5CYII=;clipPath=inset(0% 30.33% 0% 0%);" vertex="1" parent="1">
          <mxGeometry x="35" y="320" width="527.6283259911895" height="573.07" as="geometry" />
        </mxCell>
        <mxCell id="xBhgXONv_JpVhmFGBIhz-2" value="" style="ellipse;whiteSpace=wrap;html=1;aspect=fixed;fillColor=#e3c800;strokeColor=#B09500;fontColor=#000000;" vertex="1" parent="1">
          <mxGeometry x="310" y="560" width="10" height="10" as="geometry" />
        </mxCell>
        <mxCell id="xBhgXONv_JpVhmFGBIhz-3" value="" style="endArrow=none;html=1;rounded=0;entryX=0.353;entryY=0.989;entryDx=0;entryDy=0;exitX=0.502;exitY=0.541;exitDx=0;exitDy=0;exitPerimeter=0;entryPerimeter=0;strokeWidth=2;fillColor=#fa6800;strokeColor=#C73500;dashed=1;" edge="1" parent="1" source="xBhgXONv_JpVhmFGBIhz-1" target="xBhgXONv_JpVhmFGBIhz-2">
          <mxGeometry width="50" height="50" relative="1" as="geometry">
            <mxPoint x="370" y="610" as="sourcePoint" />
            <mxPoint x="420" y="560" as="targetPoint" />
          </mxGeometry>
        </mxCell>
        <mxCell id="xBhgXONv_JpVhmFGBIhz-4" value="" style="endArrow=none;html=1;rounded=0;exitX=0.35;exitY=0.541;exitDx=0;exitDy=0;exitPerimeter=0;strokeWidth=2;fillColor=#1ba1e2;strokeColor=#006EAF;dashed=1;entryX=0.578;entryY=0.209;entryDx=0;entryDy=0;entryPerimeter=0;" edge="1" parent="1" target="xBhgXONv_JpVhmFGBIhz-1">
          <mxGeometry width="50" height="50" relative="1" as="geometry">
            <mxPoint x="317" y="560" as="sourcePoint" />
            <mxPoint x="347" y="460" as="targetPoint" />
          </mxGeometry>
        </mxCell>
        <mxCell id="xBhgXONv_JpVhmFGBIhz-5" value="&lt;font style=&quot;font-size: 21px;&quot;&gt;&lt;b&gt;r1&lt;/b&gt;&lt;/font&gt;" style="text;strokeColor=none;align=center;fillColor=none;html=1;verticalAlign=middle;whiteSpace=wrap;rounded=0;fontColor=#FF0080;" vertex="1" parent="1">
          <mxGeometry x="260" y="570" width="60" height="30" as="geometry" />
        </mxCell>
        <mxCell id="xBhgXONv_JpVhmFGBIhz-6" value="&lt;font color=&quot;#3399ff&quot; style=&quot;font-size: 21px;&quot;&gt;&lt;b&gt;r2&lt;/b&gt;&lt;/font&gt;" style="text;strokeColor=none;align=center;fillColor=none;html=1;verticalAlign=middle;whiteSpace=wrap;rounded=0;" vertex="1" parent="1">
          <mxGeometry x="280" y="470" width="60" height="30" as="geometry" />
        </mxCell>
        <mxCell id="xBhgXONv_JpVhmFGBIhz-7" value="&lt;b style=&quot;&quot;&gt;&lt;span style=&quot;font-size: 21px;&quot;&gt;x&lt;/span&gt;&lt;font style=&quot;font-size: 14px;&quot;&gt;new&lt;/font&gt;&lt;/b&gt;" style="text;strokeColor=none;align=center;fillColor=none;html=1;verticalAlign=middle;whiteSpace=wrap;rounded=0;" vertex="1" parent="1">
          <mxGeometry x="320" y="550" width="60" height="30" as="geometry" />
        </mxCell>
      </root>
    </mxGraphModel>
  </diagram>
</mxfile>
